<svg width="100" height="89" viewBox="0 0 100 89" fill="none" xmlns="http://www.w3.org/2000/svg">
<path d="M39.7792 50.0236H53.9417V83.0236C53.9417 87.882 59.9917 90.1736 63.2 86.507L97.8958 47.0903C100.921 43.6528 98.4917 38.2903 93.9083 38.2903H79.7458V5.2903C79.7458 0.431964 73.6958 -1.8597 70.4875 1.80696L35.7917 41.2236C32.8125 44.6611 35.2417 50.0236 39.7792 50.0236ZM36.0208 10.9232H3.9375C2.05833 10.9232 0.5 9.36488 0.5 7.48571C0.5 5.60655 2.05833 4.04821 3.9375 4.04821H36.0208C37.9 4.04821 39.4583 5.60655 39.4583 7.48571C39.4583 9.36488 37.9 10.9232 36.0208 10.9232ZM31.4375 84.2565H3.9375C2.05833 84.2565 0.5 82.6982 0.5 80.819C0.5 78.9399 2.05833 77.3815 3.9375 77.3815H31.4375C33.3167 77.3815 34.875 78.9399 34.875 80.819C34.875 82.6982 33.3167 84.2565 31.4375 84.2565ZM17.6875 47.5899H3.9375C2.05833 47.5899 0.5 46.0315 0.5 44.1524C0.5 42.2732 2.05833 40.7149 3.9375 40.7149H17.6875C19.5667 40.7149 21.125 42.2732 21.125 44.1524C21.125 46.0315 19.5667 47.5899 17.6875 47.5899Z" fill="#112F91"/>
</svg>
