<svg width="22" height="23" viewBox="0 0 22 23" fill="none" xmlns="http://www.w3.org/2000/svg">
<path d="M16.25 22.3854C16.7335 22.3854 17.1971 22.1934 17.539 21.8515C17.8809 21.5096 18.0729 21.046 18.0729 20.5625C18.0729 20.079 17.8809 19.6154 17.539 19.2735C17.1971 18.9316 16.7335 18.7396 16.25 18.7396C15.7665 18.7396 15.3029 18.9316 14.961 19.2735C14.6191 19.6154 14.4271 20.079 14.4271 20.5625C14.4271 21.046 14.6191 21.5096 14.961 21.8515C15.3029 22.1934 15.7665 22.3854 16.25 22.3854ZM7.91667 22.3854C8.40013 22.3854 8.8638 22.1934 9.20566 21.8515C9.54753 21.5096 9.73958 21.046 9.73958 20.5625C9.73958 20.079 9.54753 19.6154 9.20566 19.2735C8.8638 18.9316 8.40013 18.7396 7.91667 18.7396C7.4332 18.7396 6.96953 18.9316 6.62767 19.2735C6.28581 19.6154 6.09375 20.079 6.09375 20.5625C6.09375 21.046 6.28581 21.5096 6.62767 21.8515C6.96953 22.1934 7.4332 22.3854 7.91667 22.3854ZM4.36458 3.05208L4.15625 5.60417C4.11458 6.09375 4.5 6.5 4.98958 6.5H20.9375C21.375 6.5 21.7396 6.16667 21.7708 5.72917C21.9063 3.88542 20.5 2.38542 18.6563 2.38542H5.85417C5.75 1.92708 5.54167 1.48958 5.21875 1.125C4.69792 0.572917 3.96875 0.25 3.21875 0.25H1.40625C0.979167 0.25 0.625 0.604167 0.625 1.03125C0.625 1.45833 0.979167 1.8125 1.40625 1.8125H3.21875C3.54167 1.8125 3.84375 1.94792 4.0625 2.17708C4.28125 2.41667 4.38542 2.72917 4.36458 3.05208ZM20.6875 8.0625H4.70833C4.27083 8.0625 3.91667 8.39583 3.875 8.82292L3.5 13.3542C3.46424 13.774 3.51603 14.1967 3.65211 14.5955C3.78819 14.9943 4.00558 15.3604 4.29052 15.6708C4.57547 15.9812 4.92175 16.2291 5.30746 16.3987C5.69317 16.5683 6.10989 16.656 6.53125 16.6563H18.1146C19.6771 16.6563 21.0521 15.375 21.1667 13.8125L21.5104 8.94792C21.5203 8.83444 21.5063 8.72014 21.4693 8.6124C21.4323 8.50467 21.3731 8.40589 21.2956 8.32245C21.218 8.23901 21.1239 8.17276 21.0191 8.12799C20.9144 8.08321 20.8014 8.0609 20.6875 8.0625Z" fill="#112F91"/>
</svg>
