<svg width="500" height="500" viewBox="0 0 500 500" fill="none" xmlns="http://www.w3.org/2000/svg">
<path d="M324.1 102.971C327.18 100.983 330.759 99.9074 334.425 99.8659C335.06 99.8659 335.68 99.9009 336.29 99.9559C336.03 98.8659 335.705 97.5859 335.29 96.1959C333.976 95.5369 332.834 94.5804 331.954 93.4029C331.075 92.2249 330.483 90.8579 330.225 89.4109C329.754 89.4924 329.277 89.5344 328.8 89.5359C327.097 89.5414 325.429 89.0514 324 88.1259C323.649 88.0499 323.304 87.9529 322.965 87.8359C322.517 87.9149 322.064 87.9569 321.61 87.9609C319.298 87.9739 317.074 87.0759 315.42 85.4609L311.085 86.9609C311.085 86.9609 322.205 92.5709 324.1 102.971Z" fill="#1B7FBD"/>
<path d="M325.394 428.605C325.392 436.579 322.223 444.227 316.584 449.866C310.946 455.506 303.299 458.676 295.324 458.68H152.174C144.199 458.677 136.551 455.507 130.911 449.868C125.271 444.228 122.102 436.58 122.099 428.605V116.23C122.097 112.278 122.873 108.365 124.383 104.713C125.893 101.062 128.108 97.7438 130.901 94.9488C133.694 92.1533 137.01 89.9358 140.66 88.4228C144.31 86.9093 148.223 86.1303 152.174 86.1298H171.304C174.747 86.1308 178.048 87.4973 180.484 89.9298C182.718 92.1488 184.056 95.1118 184.244 98.2548C184.272 98.5153 184.286 98.7773 184.284 99.0398C184.284 99.2648 184.284 99.4848 184.284 99.7048C184.377 101.611 184.871 103.477 185.734 105.18C185.759 105.22 185.774 105.275 185.799 105.315C186.845 107.364 188.438 109.082 190.402 110.28C192.366 111.478 194.624 112.108 196.924 112.1H250.209C251.917 112.102 253.608 111.767 255.186 111.114C256.764 110.461 258.198 109.503 259.404 108.295C260.327 107.373 261.098 106.312 261.689 105.15C261.714 105.128 261.733 105.101 261.744 105.07C262.622 103.404 263.113 101.561 263.179 99.6798C263.179 99.5148 263.179 99.3648 263.179 99.1798C263.219 92.0248 268.679 86.1148 275.844 86.1148H291.999L308.999 85.9048C309.344 82.6548 310.729 79.2348 312.159 76.2148C312.636 75.1693 313.2 74.1658 313.844 73.2148H153.399C148.219 73.2138 143.09 74.2339 138.304 76.2159C133.518 78.1979 129.169 81.1034 125.506 84.7664C121.843 88.4294 118.938 92.7779 116.956 97.5639C114.973 102.35 113.954 107.479 113.954 112.66V435.555C113.953 440.735 114.972 445.865 116.954 450.651C118.936 455.437 121.841 459.786 125.505 463.449C129.168 467.112 133.516 470.018 138.303 472C143.089 473.982 148.219 475.001 153.399 475H298.449C303.63 475 308.759 473.98 313.546 471.998C318.332 470.016 322.681 467.111 326.344 463.448C330.008 459.785 332.914 455.437 334.896 450.651C336.879 445.865 337.899 440.735 337.899 435.555V413.32L325.399 420.445L325.394 428.605Z" fill="#1B7FBD"/>
<path d="M329.756 181.086C328.256 179.541 326.806 181.941 325.396 180.301V299.116C326.277 295.871 327.364 292.686 328.651 289.581C328.941 288.901 329.231 288.216 329.531 287.541C330.166 286.146 330.831 284.771 331.531 283.406C331.721 283.016 331.916 282.646 332.121 282.276C332.326 281.906 332.576 281.431 332.811 281.031C333.211 280.301 333.641 279.571 334.081 278.856C334.381 278.316 334.716 277.796 335.046 277.271C335.291 276.856 335.546 276.456 335.816 276.071C336.106 275.601 336.421 275.136 336.726 274.681C337.101 274.116 337.496 273.551 337.886 272.996V188.361C336.386 187.191 334.886 185.961 333.476 184.696C332.191 183.536 330.951 182.336 329.756 181.086Z" fill="#1B7FBD"/>
<path d="M336.705 98.5C334.975 100.68 332.83 98.85 330.04 98.85C327.5 98.85 326.04 102.96 324.43 101.305C324.52 101.525 323.615 104.805 323.69 105.025C323.935 105.685 324.155 106.375 324.35 107.065V107.09C324.6 107.975 324.79 108.855 324.955 109.765C324.995 109.97 325.04 110.195 325.065 110.415C325.135 110.88 325.205 111.365 325.245 111.845C325.299 112.29 325.331 112.737 325.34 113.185C325.385 113.685 325.395 114.23 325.395 114.77V149.77C325.803 150.111 326.143 150.526 326.395 150.995C328.395 154.645 330.31 151.91 332.45 155.495C333.59 157.345 335.95 158.79 337.16 157.45C337.605 156.95 337.88 154.81 337.88 154.01V111.72C337.879 109.712 337.73 107.707 337.435 105.72C337.345 104.965 336.865 99.265 336.705 98.5Z" fill="#1B7FBD"/>
<path d="M184.3 98.3555C185.205 100.04 185.702 101.913 185.75 103.825C184.887 102.124 184.393 100.26 184.3 98.3555Z" fill="#1B7FBD"/>
<path d="M263.18 98.3242C263.114 100.206 262.623 102.049 261.745 103.714C261.842 101.837 262.331 100.001 263.18 98.3242Z" fill="#1B7FBD"/>
<path d="M454.595 250.879C406.825 265.794 382.13 229.264 382.13 229.264C383.935 226.589 381.205 221.559 381.205 221.559L379.545 213.059C358.44 212.024 339.345 191.454 339.345 191.454C366.65 186.614 354.88 170.259 354.88 170.259L373.705 184.999L375.745 184.819C375.995 159.319 392.05 147.409 397.08 143.374C402.11 139.339 402.97 143.344 402.97 143.344C402.97 143.344 400.76 151.504 410.19 152.634C419.62 153.764 426.525 144.929 426.525 144.929C429.76 137.679 433.485 142.174 433.485 142.174C449.65 150.774 452.575 172.054 456.045 186.924C458.44 197.114 463 219.074 466.045 229.774C467.11 233.477 466.897 237.432 465.44 240.999C464.468 243.341 462.993 245.44 461.118 247.148C459.244 248.855 457.017 250.129 454.595 250.879Z" fill="#353642"/>
<path d="M454.595 250.879C406.825 265.794 382.13 229.264 382.13 229.264C383.935 226.589 381.205 221.559 381.205 221.559L379.545 213.059C358.44 212.024 339.345 191.454 339.345 191.454C357.435 182.409 354.88 170.259 354.88 170.259L373.705 184.999L375.745 184.819C375.995 159.319 392.05 147.409 397.08 143.374C402.11 139.339 402.97 143.344 402.97 143.344C402.97 143.344 400.76 151.504 410.19 152.634C419.62 153.764 426.525 144.929 426.525 144.929C429.76 137.679 433.485 142.174 433.485 142.174C449.65 150.774 452.575 172.054 456.045 186.924C458.44 197.114 463 219.074 466.045 229.774C467.11 233.477 466.897 237.432 465.44 240.999C464.468 243.341 462.993 245.44 461.118 247.148C459.244 248.855 457.017 250.129 454.595 250.879Z" fill="#353642"/>
<path d="M398.29 122.111C401.275 122.111 403.695 119.691 403.695 116.706C403.695 113.72 401.275 111.301 398.29 111.301C395.305 111.301 392.885 113.72 392.885 116.706C392.885 119.691 395.305 122.111 398.29 122.111Z" fill="#D7E8F0"/>
<path d="M405.655 127.59C405.185 131.05 402.25 133.31 399.19 132.81" stroke="black" stroke-width="4.13" stroke-miterlimit="10"/>
<path d="M369.425 97.4495C369.939 99.8015 371.178 101.932 372.968 103.542C374.757 105.153 377.007 106.161 379.4 106.424C379.619 105.463 380.069 104.569 380.71 103.819C383.44 100.714 384.475 106.654 393.115 102.579C405.115 96.9145 409.53 100.384 409.53 100.384C409.92 100.689 409.82 103.419 409.865 103.884C410.125 106.709 410.365 109.524 410.66 112.349C410.83 114.069 410.995 115.779 411.16 117.489C411.327 117.204 411.511 116.929 411.71 116.664C412.87 112.859 416.095 108.404 420.21 110.434C421.046 110.86 421.769 111.479 422.32 112.239C425.005 115.919 422.82 119.379 419.905 121.914C419.165 122.704 418.342 123.412 417.45 124.024C417.905 125.024 419.77 128.954 419.77 128.969C419.96 129.369 426.895 121.829 427.415 121.004C428.212 118.971 428.66 116.817 428.74 114.634C429.03 105.664 425.585 95.1345 418.415 89.8545C416.64 88.5445 416.02 87.3045 415.915 85.5695C415.909 85.476 415.875 85.3865 415.818 85.3125C415.76 85.2385 415.682 85.1835 415.593 85.155C415.504 85.1265 415.408 85.1255 415.318 85.152C415.228 85.1785 415.149 85.232 415.09 85.3045C412.76 87.8845 407.125 87.5095 407.125 87.5095C387.625 82.2195 380.895 90.7895 376.925 92.2545C375.308 92.832 373.541 92.832 371.925 92.2545C371.819 92.793 371.568 93.292 371.199 93.6975C370.829 94.103 370.356 94.3995 369.83 94.5545L369.915 95.4645C369.986 96.163 369.813 96.8645 369.425 97.4495Z" fill="#1B7FBD"/>
<path d="M411.265 134.195C409.98 135.195 406.39 138.075 404.955 138.93C403.903 139.566 402.797 140.109 401.65 140.555C393.02 143.81 384.93 136.41 381.965 129.005C379.525 122.9 378.965 116.08 379.14 109.56C379.17 108.885 379.195 108.195 379.25 107.505C379.243 107.463 379.243 107.421 379.25 107.38C379.277 107.065 379.323 106.753 379.39 106.445C379.608 105.482 380.057 104.588 380.7 103.84C383.425 100.74 384.46 106.68 393.1 102.6C405.1 96.9346 409.52 100.405 409.52 100.405C409.905 100.71 409.805 103.44 409.85 103.905C410.11 106.735 410.35 109.545 410.65 112.37C410.815 114.095 410.98 115.8 411.15 117.51C411.19 117.98 411.235 118.435 411.275 118.9C411.336 118.143 411.479 117.395 411.7 116.67C412.86 112.865 416.085 108.415 420.2 110.44C421.037 110.866 421.76 111.484 422.31 112.245C424.995 115.925 422.81 119.385 419.895 121.92C419.155 122.554 418.373 123.139 417.555 123.67L417.335 123.81L417.445 124.03C417.9 125.03 419.76 128.965 419.76 128.975C419.95 129.375 426.885 121.84 427.41 121.01C429.217 118.222 430.348 115.051 430.715 111.75C430.76 111.335 430.785 110.935 430.8 110.52C431.09 101.55 427.645 91.0196 420.475 85.7396C418.695 84.4296 418.075 83.1896 417.975 81.4546C417.97 81.3611 417.936 81.2716 417.878 81.1976C417.821 81.1236 417.742 81.0686 417.653 81.0401C417.564 81.0111 417.468 81.0101 417.379 81.0371C417.289 81.0636 417.209 81.1166 417.15 81.1896C414.82 83.7696 409.18 83.3946 409.18 83.3946C389.705 78.1046 382.95 86.6746 378.985 88.1396C375.02 89.6046 371.54 86.8996 371.54 86.8996L371.955 91.3346C371.983 91.6386 371.964 91.9456 371.9 92.2446C371.795 92.7826 371.544 93.2816 371.174 93.6871C370.805 94.0926 370.331 94.3891 369.805 94.5446C369.606 94.6171 369.397 94.6591 369.185 94.6696H369.03C369.068 95.5931 369.189 96.5121 369.39 97.4146C369.906 99.7701 371.149 101.904 372.943 103.514C374.738 105.125 376.993 106.131 379.39 106.39" stroke="black" stroke-width="4.13" stroke-miterlimit="10"/>
<path d="M382.135 121.58C385.12 121.58 387.54 119.16 387.54 116.175C387.54 113.19 385.12 110.77 382.135 110.77C379.15 110.77 376.73 113.19 376.73 116.175C376.73 119.16 379.15 121.58 382.135 121.58Z" fill="#D7E8F0"/>
<path d="M400.545 118.725C400.548 119.164 400.421 119.595 400.178 119.962C399.936 120.329 399.591 120.616 399.185 120.786C398.78 120.957 398.333 121.003 397.901 120.919C397.47 120.835 397.073 120.625 396.761 120.315C396.449 120.005 396.236 119.609 396.149 119.178C396.062 118.747 396.105 118.3 396.273 117.894C396.44 117.487 396.725 117.14 397.09 116.895C397.456 116.65 397.886 116.52 398.325 116.52C398.541 116.515 398.756 116.547 398.96 116.615C398.854 116.716 398.768 116.838 398.709 116.973C398.65 117.107 398.618 117.253 398.615 117.4C398.618 117.683 398.732 117.954 398.934 118.153C399.135 118.353 399.407 118.465 399.69 118.465C399.833 118.464 399.974 118.434 400.105 118.376C400.236 118.319 400.353 118.235 400.45 118.13C400.515 118.321 400.547 118.522 400.545 118.725Z" fill="black"/>
<path d="M384.83 118C384.829 118.437 384.699 118.864 384.456 119.226C384.212 119.589 383.867 119.872 383.464 120.038C383.06 120.205 382.616 120.248 382.188 120.163C381.76 120.077 381.366 119.867 381.058 119.558C380.749 119.249 380.538 118.856 380.453 118.428C380.368 118 380.411 117.556 380.578 117.152C380.744 116.748 381.027 116.403 381.389 116.16C381.752 115.917 382.179 115.786 382.615 115.785C382.903 115.784 383.189 115.84 383.455 115.95C383.305 116.051 383.18 116.186 383.093 116.344C383.006 116.502 382.959 116.68 382.955 116.86C382.956 117.001 382.984 117.139 383.039 117.269C383.093 117.398 383.173 117.515 383.272 117.614C383.372 117.712 383.491 117.79 383.621 117.843C383.751 117.895 383.89 117.922 384.03 117.92C384.169 117.922 384.306 117.896 384.434 117.844C384.562 117.791 384.678 117.714 384.775 117.615C384.809 117.741 384.827 117.87 384.83 118Z" fill="black"/>
<path d="M390.315 116.619C390.315 116.619 388.93 122.774 388.765 123.394C388.265 125.394 392.235 124.774 392.235 124.774" stroke="black" stroke-width="4.13" stroke-miterlimit="10"/>
<path d="M395.396 105.001C395.396 105.001 401.921 102.556 405.551 107.456" stroke="black" stroke-width="4.13" stroke-miterlimit="10"/>
<path d="M373.705 109.895C373.705 109.895 377.065 103.79 383.005 105.145" stroke="black" stroke-width="4.13" stroke-miterlimit="10"/>
<path d="M398.29 123.09C401.817 123.09 404.675 120.231 404.675 116.705C404.675 113.179 401.817 110.32 398.29 110.32C394.764 110.32 391.905 113.179 391.905 116.705C391.905 120.231 394.764 123.09 398.29 123.09Z" stroke="black" stroke-width="4.13" stroke-miterlimit="10"/>
<path d="M382.135 122.559C385.662 122.559 388.52 119.701 388.52 116.174C388.52 112.648 385.662 109.789 382.135 109.789C378.609 109.789 375.75 112.648 375.75 116.174C375.75 119.701 378.609 122.559 382.135 122.559Z" stroke="black" stroke-width="4.13" stroke-miterlimit="10"/>
<path d="M382.13 111.835H382.275C383.424 111.853 384.52 112.328 385.32 113.154C386.119 113.98 386.558 115.09 386.54 116.24C386.521 117.39 386.047 118.485 385.221 119.285C384.394 120.084 383.284 120.523 382.135 120.505H382C380.85 120.486 379.755 120.012 378.955 119.186C378.155 118.36 377.716 117.25 377.735 116.1C377.753 114.95 378.228 113.855 379.054 113.055C379.88 112.255 380.99 111.816 382.14 111.835H382.13ZM382.14 110.8C380.716 110.777 379.34 111.32 378.317 112.311C377.293 113.301 376.705 114.658 376.682 116.082C376.659 117.506 377.203 118.882 378.193 119.905C379.184 120.929 380.541 121.517 381.965 121.54H382.145C383.569 121.563 384.944 121.019 385.968 120.029C386.991 119.038 387.579 117.682 387.602 116.257C387.625 114.833 387.082 113.458 386.091 112.434C385.101 111.411 383.744 110.823 382.32 110.8H382.14Z" fill="white"/>
<path d="M391.905 116.495L388.515 116.385" stroke="black" stroke-width="4.13" stroke-miterlimit="10"/>
<path d="M396.695 345.245L389.915 386.775L382.57 385.675C380.979 385.425 379.551 384.558 378.594 383.264C377.637 381.969 377.228 380.349 377.455 378.755L378 374.3L383 337.65C391.14 342.42 396.695 345.245 396.695 345.245Z" fill="#1B7FBD"/>
<path d="M363.15 398.92L337.9 413.42L325.4 420.615L321.57 422.82C321.578 422.747 321.578 422.673 321.57 422.6L318.57 424.31L314.71 416.895C313.809 415.183 313.617 413.185 314.178 411.333C314.738 409.481 316.006 407.924 317.705 407L361.455 383.045L361.495 383.445L363.15 398.92Z" fill="#1B7FBD"/>
<path d="M326.225 296.29C325.95 295.92 325.675 295.56 325.395 295.245C323.81 293.34 322.255 292.06 321.205 289.895C320.368 288.132 320.127 286.145 320.517 284.233C320.908 282.321 321.909 280.589 323.37 279.295C323.975 278.774 324.648 278.338 325.37 278" stroke="black" stroke-width="4.13" stroke-miterlimit="10"/>
<path d="M379.47 362.906L378 374.291L377.435 378.746C377.208 380.34 377.617 381.959 378.574 383.254C379.532 384.549 380.96 385.415 382.55 385.666L389.895 386.766L396.675 345.236C396.675 345.236 391.12 342.411 382.99 337.631C377.175 334.211 369.99 329.786 362.62 324.686" stroke="black" stroke-width="4.13" stroke-miterlimit="10"/>
<path d="M378.22 372.741C378.22 372.741 370.29 368.466 360.22 362.311" stroke="black" stroke-width="4.13" stroke-miterlimit="10"/>
<g opacity="0.68">
<path opacity="0.68" d="M325.394 180.935V299.115C323.204 307.205 322.159 315.615 321.604 324.075V181.235C322.834 182.835 324.099 179.405 325.394 180.935Z" fill="#D7E8F0"/>
<path opacity="0.68" d="M325.395 420.446V427.241C325.392 435.216 322.223 442.863 316.585 448.502C310.946 454.142 303.299 457.312 295.325 457.316H152.175C144.199 457.313 136.551 454.144 130.911 448.504C125.272 442.865 122.102 435.216 122.1 427.241V114.866C122.097 110.914 122.873 107.001 124.383 103.35C125.893 99.6981 128.108 96.3801 130.901 93.5846C133.694 90.7896 137.01 88.5721 140.661 87.0586C144.311 85.5456 148.223 84.7666 152.175 84.7656H171.305C172.183 84.7681 173.058 84.8551 173.92 85.0256C174.496 85.1466 175.064 85.3036 175.62 85.4956C175.865 85.5906 176.12 85.6856 176.35 85.7856C176.74 85.9476 177.12 86.1311 177.49 86.3356C177.934 86.5756 178.363 86.8426 178.775 87.1356C179.05 87.3256 179.31 87.5206 179.56 87.7256C179.81 87.9306 180.195 88.2806 180.485 88.5656L182.485 91.1456C182.668 91.4531 182.835 91.7706 182.985 92.0956L183.715 93.9406C183.815 94.2756 183.91 94.6056 183.98 94.9406L184.16 95.9856C184.185 96.1256 184.2 96.2756 184.215 96.4156C184.22 96.4841 184.22 96.5526 184.215 96.6206C184.245 96.9506 184.27 97.2706 184.27 97.6206V97.7556C184.27 97.9656 184.27 98.1556 184.27 98.3506C184.257 98.3191 184.238 98.2906 184.215 98.2656C183.651 97.1961 182.926 96.2196 182.065 95.3706C179.722 93.0261 176.544 91.7076 173.23 91.7056H154.835C151.03 91.7076 147.262 92.4596 143.748 93.9181C140.233 95.3771 137.041 97.5141 134.352 100.208C131.664 102.901 129.533 106.097 128.081 109.615C126.629 113.132 125.884 116.901 125.89 120.706V421.426C125.89 429.104 128.939 436.468 134.367 441.898C139.794 447.329 147.157 450.382 154.835 450.386H292.665C300.097 450.384 307.243 447.524 312.623 442.397C318.004 437.269 321.205 430.269 321.565 422.846C321.572 422.773 321.572 422.699 321.565 422.626L325.395 420.446Z" fill="#D7E8F0"/>
<path opacity="0.68" d="M261.745 103.715C261.745 103.905 261.745 104.085 261.745 104.28C261.726 107.583 260.401 110.745 258.059 113.074C255.717 115.403 252.548 116.71 249.245 116.71H197.93C191.015 116.71 185.79 111.06 185.76 104.14C185.76 104.03 185.76 103.935 185.76 103.825C186.792 105.909 188.388 107.662 190.366 108.885C192.343 110.108 194.624 110.752 196.95 110.745H250.21C251.917 110.748 253.609 110.413 255.187 109.76C256.765 109.107 258.198 108.149 259.405 106.94C260.349 105.994 261.138 104.906 261.745 103.715Z" fill="#D7E8F0"/>
</g>
<path d="M337.9 231.964C355.685 228.349 372.95 224.614 382.13 224.739" stroke="black" stroke-width="4.13" stroke-miterlimit="10"/>
<path d="M321.085 334.999C294.125 313.274 269.66 285.409 280.175 261.134C286.5 246.499 305.22 238.524 325.395 234.199" stroke="black" stroke-width="4.13" stroke-miterlimit="10"/>
<path d="M379.675 214.029C380.115 215.614 382.13 224.744 382.625 226.394C384.455 232.349 361.165 248.104 357.22 251.644C350.14 257.959 343.44 265.069 337.9 272.994C334.216 278.165 331.114 283.727 328.65 289.579C327.363 292.685 326.276 295.87 325.395 299.114C323.205 307.204 322.16 315.614 321.605 324.074C321.165 330.484 321 336.919 320.82 343.204C320.45 355.264 320.64 367.394 321.43 379.414C321.485 380.174 321.54 380.914 321.605 381.674C322.228 388.813 323.437 395.888 325.22 402.829V402.874" stroke="black" stroke-width="4.13" stroke-miterlimit="10"/>
<path d="M376.23 185.86C376.985 162.445 387.615 149.945 397.08 143.36C398.922 142.098 400.897 141.043 402.97 140.215" stroke="black" stroke-width="4.13" stroke-miterlimit="10"/>
<path d="M428.95 140.061C429.39 140.226 429.815 140.406 430.245 140.586L430.715 140.791C431.753 141.243 432.765 141.754 433.745 142.321C437.129 144.249 440.084 146.847 442.43 149.956C442.521 150.044 442.595 150.147 442.65 150.261C443.06 150.841 443.46 151.431 443.85 152.041C447.31 157.541 450.535 164.966 453 173.541C454.271 177.94 455.288 182.409 456.045 186.926" stroke="black" stroke-width="4.13" stroke-miterlimit="10"/>
<path d="M456.045 186.92C458.44 197.11 463.005 219.075 466.045 229.77C467.111 233.475 466.898 237.431 465.44 241C464.468 243.342 462.993 245.441 461.118 247.148C459.244 248.856 457.017 250.13 454.595 250.88L445.55 253.07C444.603 253.303 443.768 253.858 443.185 254.64C441.132 257.352 438.856 259.888 436.38 262.22C397.25 299.06 350.165 260.925 361.455 383.055L361.495 383.455C361.951 388.345 362.503 393.5 363.15 398.92L337.9 413.32L325.4 420.445L321.585 422.625L318.585 424.335L314.725 416.92C313.814 415.207 313.616 413.204 314.174 411.347C314.732 409.489 316.001 407.927 317.705 407L321.605 404.835L325.22 402.835L325.395 402.74L337.895 395.82L340.555 394.32" stroke="black" stroke-width="4.13" stroke-miterlimit="10"/>
<path d="M337.905 413.32V434.185C337.903 444.65 333.745 454.685 326.345 462.084C318.945 469.484 308.909 473.64 298.445 473.64H149.05C143.868 473.641 138.737 472.621 133.949 470.638C129.162 468.656 124.812 465.75 121.148 462.086C117.483 458.422 114.577 454.072 112.594 449.285C110.61 444.498 109.59 439.367 109.59 434.185V109.06C109.59 103.878 110.61 98.748 112.594 93.9605C114.577 89.1735 117.483 84.8235 121.148 81.16C124.812 77.496 129.162 74.59 133.949 72.6075C138.737 70.625 143.868 69.605 149.05 69.6055H316.595" stroke="black" stroke-width="4.13" stroke-miterlimit="10"/>
<path d="M337.9 109.059C337.904 106.352 337.63 103.651 337.085 100.999C337.085 100.999 336.355 96.5844 335.655 95.3594" stroke="black" stroke-width="4.13" stroke-miterlimit="10"/>
<path d="M337.9 272.981V231.976V189.211" stroke="black" stroke-width="4.13" stroke-miterlimit="10"/>
<path d="M337.9 109.064V132.199V159.674" stroke="black" stroke-width="4.13" stroke-miterlimit="10"/>
<path d="M378.001 172V171.965C373.728 170.049 369.7 167.63 366.001 164.76C350.561 152.882 340.436 135.389 337.826 116.085C337.759 115.608 337.699 115.128 337.646 114.645" stroke="black" stroke-width="4.13" stroke-miterlimit="10"/>
<path d="M325.405 287.615V180.895" stroke="black" stroke-width="4.13" stroke-miterlimit="10"/>
<path d="M325.405 150.911V114.871C325.405 108.306 324.83 100.526 321.295 95.5709C321.295 95.5709 312.72 84.7559 304.005 84.7559H276.195" stroke="black" stroke-width="4.13" stroke-miterlimit="10"/>
<path d="M287.4 84.7559H276.195C272.747 84.7559 269.44 86.1254 267.002 88.5634C264.564 91.0014 263.195 94.3079 263.195 97.7559C263.195 101.203 261.825 104.51 259.387 106.948C256.949 109.386 253.643 110.756 250.195 110.756H197.285C193.837 110.756 190.53 109.386 188.092 106.948C185.654 104.51 184.285 101.203 184.285 97.7559C184.285 94.3079 182.915 91.0014 180.477 88.5634C178.039 86.1254 174.733 84.7559 171.285 84.7559H152.175C144.192 84.7609 136.538 87.9364 130.897 93.5839C125.255 99.2314 122.087 106.888 122.09 114.871V427.241C122.094 435.218 125.265 442.867 130.906 448.508C136.547 454.148 144.197 457.318 152.175 457.321H295.32C303.297 457.318 310.947 454.148 316.588 448.508C322.23 442.867 325.401 435.218 325.405 427.241V420.451" stroke="black" stroke-width="4.13" stroke-miterlimit="10"/>
<path d="M334.825 71.4609C340.27 73.7909 345.355 81.4959 347.825 86.6509C352.405 96.2159 356.4 103.536 361.825 112.651C366.47 120.466 370.73 128.931 378.035 134.651C381.902 137.722 386.609 139.547 391.535 139.886" stroke="black" stroke-width="4.13" stroke-miterlimit="10"/>
<path d="M186.999 84.7645C186.995 95.5625 184.065 106.158 178.522 115.425C172.979 124.691 165.029 132.283 155.518 137.394C146.006 142.505 135.287 144.945 124.5 144.452C113.713 143.96 103.261 140.555 94.2544 134.6C82.5819 124.777 75.1079 110.862 73.3644 95.7055C71.6209 80.5495 75.7394 65.301 84.8764 53.084C94.0134 40.867 107.477 32.6071 122.507 29.9967C137.538 27.3864 152.998 30.6234 165.719 39.0444C172.392 44.6473 177.755 51.6445 181.431 59.5435C185.108 67.4425 187.008 76.0515 186.999 84.7645Z" fill="#25C4C1"/>
<path d="M180.499 85.001C180.497 94.565 177.903 103.949 172.995 112.158C168.086 120.366 161.045 127.091 152.621 131.619C144.197 136.147 134.703 138.307 125.149 137.872C115.595 137.436 106.337 134.421 98.3592 129.146C88.0472 120.438 81.4507 108.121 79.9177 94.712C78.3852 81.303 82.0322 67.815 90.1137 57.005C98.1947 46.1955 110.1 38.8808 123.395 36.5566C136.689 34.2324 150.37 37.0742 161.639 44.5009C167.551 49.464 172.303 55.662 175.561 62.659C178.819 69.6565 180.505 77.2825 180.499 85.001Z" fill="#25C4C1"/>
<path d="M244.835 215.051L201.275 221.616C200.218 221.886 199.114 221.912 198.046 221.69C196.978 221.468 195.975 221.006 195.113 220.337C194.251 219.668 193.554 218.811 193.074 217.832C192.594 216.852 192.345 215.776 192.345 214.686L196.9 177.256H261.865C262.395 177.256 262.904 177.466 263.279 177.841C263.654 178.216 263.865 178.725 263.865 179.256L257.65 202.706C256.766 205.697 255.121 208.408 252.874 210.572C250.628 212.737 247.857 214.28 244.835 215.051Z" fill="#F6EF98"/>
<path d="M207.65 244.084C211.75 244.084 215.075 240.76 215.075 236.659C215.075 232.558 211.75 229.234 207.65 229.234C203.549 229.234 200.225 232.558 200.225 236.659C200.225 240.76 203.549 244.084 207.65 244.084Z" fill="#F6EF98"/>
<path d="M235.84 244.084C239.941 244.084 243.265 240.76 243.265 236.659C243.265 232.558 239.941 229.234 235.84 229.234C231.74 229.234 228.415 232.558 228.415 236.659C228.415 240.76 231.74 244.084 235.84 244.084Z" fill="#F6EF98"/>
<path d="M202.794 185.099L196.029 184.194L197.929 169.964C198.05 169.079 197.976 168.177 197.714 167.322C197.452 166.467 197.007 165.68 196.41 165.014C195.813 164.348 195.079 163.82 194.257 163.466C193.436 163.112 192.548 162.941 191.654 162.964L185.824 163.114C184.919 163.137 184.042 162.8 183.386 162.176C182.73 161.553 182.348 160.694 182.324 159.789C182.312 159.342 182.389 158.896 182.549 158.478C182.709 158.059 182.951 157.677 183.259 157.352C183.567 157.027 183.937 156.765 184.346 156.583C184.755 156.401 185.196 156.301 185.644 156.289L191.479 156.139C193.516 156.075 195.538 156.495 197.381 157.364C199.224 158.233 200.834 159.527 202.079 161.139C203.158 162.579 203.94 164.218 204.378 165.963C204.817 167.707 204.904 169.521 204.634 171.299L202.794 185.099Z" fill="#F6EF98"/>
<path d="M276.904 265.836H170.594C164.696 265.836 159.914 270.617 159.914 276.516V304.081C159.914 309.979 164.696 314.761 170.594 314.761H276.904C282.803 314.761 287.584 309.979 287.584 304.081V276.516C287.584 270.617 282.803 265.836 276.904 265.836Z" fill="#F6EF98"/>
<path d="M120.114 343.815C133.914 339.815 145.754 324.71 129.184 312.21C128.579 311.77 128.014 311.37 127.474 311.05C128.383 310.161 129.498 309.51 130.719 309.157C131.941 308.803 133.231 308.758 134.474 309.025C134.514 309.025 134.569 309.025 134.609 309.055C134.695 309.065 134.78 309.087 134.859 309.12C136.664 309.535 138.679 310.515 140.924 312.21C157.469 324.71 134.589 340.935 120.114 343.815Z" fill="#1B7FBD"/>
<path d="M188.345 277.396C191.012 276.994 193.707 276.804 196.405 276.826C200.04 276.826 202.235 277.091 204.205 278.076C205.233 278.517 206.108 279.251 206.721 280.187C207.333 281.122 207.657 282.218 207.65 283.336C207.65 285.456 206.475 287.541 203.485 288.676V288.751C206.59 289.621 208.485 291.931 208.485 294.961C208.486 296.057 208.226 297.137 207.725 298.111C207.224 299.085 206.497 299.925 205.605 300.561C203.71 302.001 200.535 302.836 195.105 302.836C192.851 302.883 190.597 302.73 188.37 302.381L188.345 277.396ZM195.12 286.821H196.5C199.415 286.821 200.82 285.821 200.82 284.171C200.82 282.671 199.68 281.751 197.375 281.751C196.627 281.738 195.879 281.788 195.14 281.901L195.12 286.821ZM195.12 297.766C195.774 297.832 196.432 297.856 197.09 297.836C199.36 297.836 201.29 296.926 201.29 294.661C201.29 292.501 199.32 291.661 196.745 291.661H195.12V297.766Z" fill="white"/>
<path d="M219.054 277V291.5C219.054 295.36 220.384 297.5 223.054 297.5C225.724 297.5 227.104 295.53 227.104 291.5V277H233.999V291.1C233.999 298.975 230.059 302.945 222.904 302.945C215.939 302.945 212.229 299.125 212.229 290.945V277H219.054Z" fill="white"/>
<path d="M244.589 302.53V292.235L236.564 277H244.399L246.554 282.755C247.239 284.535 247.729 285.82 248.299 287.485H248.374C248.874 285.935 249.374 284.485 250.004 282.755L252.084 277H259.804L251.439 291.955V302.515L244.589 302.53Z" fill="white"/>
<path d="M134.5 309.025C133.257 308.757 131.966 308.803 130.745 309.156C129.523 309.509 128.408 310.16 127.5 311.05C119.08 318.62 118.695 343.815 118.695 343.815H116.46C116.46 343.815 111.06 314.485 119.065 309.575H119.095C119.23 309.52 119.8 309.27 120.595 308.995C120.595 308.995 120.635 308.995 120.65 308.995C121.686 308.637 122.757 308.387 123.845 308.25C127.415 307.929 131.014 308.191 134.5 309.025Z" fill="#D7E8F0"/>
<path d="M187 84.766C186.998 98.372 182.354 111.57 173.835 122.179C165.315 132.787 153.43 140.171 140.145 143.11C126.86 146.048 112.97 144.365 100.771 138.339C88.5726 132.312 78.7956 122.304 73.0561 109.967C67.3171 97.631 65.9591 83.7055 69.2076 70.4925C72.4561 57.28 80.1161 45.5714 90.9211 37.3024C101.726 29.0334 115.03 24.6992 128.632 25.0162C142.235 25.3332 155.322 30.2825 165.73 39.0459C172.393 44.6556 177.75 51.6545 181.424 59.552C185.098 67.45 187.001 76.0555 187 84.766Z" stroke="black" stroke-width="4.13" stroke-miterlimit="10"/>
<path d="M105.614 394.73V420.73H47.1143C46.4271 420.731 45.7467 420.595 45.1128 420.329C44.479 420.064 43.9045 419.674 43.4231 419.184C42.9416 418.694 42.5628 418.112 42.3089 417.474C42.055 416.835 41.931 416.152 41.9443 415.465L42.2343 399.82C42.2592 398.466 42.8151 397.176 43.7821 396.228C44.7491 395.279 46.0499 394.749 47.4043 394.75L105.614 394.73Z" fill="#23EAE6"/>
<path d="M198.419 399.896V415.541C198.419 416.912 197.875 418.227 196.905 419.196C195.935 420.166 194.62 420.711 193.249 420.711H105.614V394.711H193.249C193.929 394.711 194.603 394.845 195.231 395.106C195.859 395.366 196.43 395.749 196.91 396.23C197.391 396.712 197.771 397.284 198.03 397.913C198.289 398.542 198.421 399.215 198.419 399.896Z" fill="#1B7FBD"/>
<path d="M114.095 421V473.925H58.04C55.651 473.919 53.3605 472.971 51.6675 471.285C49.9745 469.6 49.0159 467.314 49 464.925V421.025L114.095 421Z" fill="#25C4C1"/>
<path d="M188.355 420.711V464.611C188.339 467 187.38 469.286 185.687 470.971C183.994 472.657 181.704 473.605 179.315 473.611H114.425V420.711H188.355Z" fill="#1B7FBD"/>
<path d="M113.94 64.6001C120.585 64.6001 124.185 69.4201 124.185 75.2901C124.185 82.7651 119.09 86.7901 113.61 86.7901C107.735 86.7901 103.25 82.4701 103.25 75.9351C103.25 69.7901 107.185 64.5801 113.885 64.5801L113.94 64.6001ZM113.72 69.9201C111.45 69.9201 110.56 72.4651 110.56 75.7351C110.56 79.1651 111.615 81.4951 113.83 81.4951C115.83 81.4951 116.875 79.5551 116.875 75.7351C116.875 72.4101 116.045 69.9201 113.775 69.9201H113.72ZM114.385 101.82L134.885 64.7151H140L119.56 101.82H114.385ZM140.97 79.5551C147.615 79.5551 151.215 84.3701 151.215 90.2451C151.215 97.7201 146.12 101.745 140.635 101.745C134.765 101.745 130.28 97.4251 130.28 90.8351C130.28 84.7401 134.21 79.5351 140.915 79.5351L140.97 79.5551ZM140.745 84.8751C138.475 84.8751 137.59 87.4201 137.59 90.6901C137.59 94.1201 138.645 96.4501 140.86 96.4501C142.86 96.4501 143.905 94.4501 143.905 90.6301C143.905 87.3101 143.075 84.8751 140.805 84.8751H140.745Z" fill="white"/>
<path d="M113.2 343.541C104.265 343.541 87.6996 336.246 96.4646 326.476C97.3896 325.365 98.5401 324.464 99.8396 323.831L99.9096 323.786H99.9396C102.036 322.808 104.28 322.183 106.58 321.936C107.32 321.874 108.065 321.898 108.8 322.006C107.63 321.951 106.265 322.586 104.65 324.131C104.365 324.391 104.06 324.721 103.745 325.066C94.9996 334.816 104.17 342.756 113.2 343.541Z" fill="#D7E8F0"/>
<path d="M115.499 343.095L114.109 343.36C114.109 343.36 110.799 327.8 104.649 324.12C106.264 322.575 107.649 321.94 108.799 321.995C108.822 322.001 108.846 322.001 108.869 321.995L109.369 322.065L109.544 322.105C115.279 323.87 115.499 343.095 115.499 343.095Z" fill="#1B7FBD"/>
<path d="M179.315 473.64H58.3651C55.9706 473.632 53.6761 472.677 51.9836 470.983C50.2906 469.289 49.3367 466.994 49.3301 464.6V420.715H188.33V464.6C188.322 466.99 187.371 469.281 185.683 470.974C183.994 472.667 181.706 473.625 179.315 473.64Z" stroke="black" stroke-width="4.13" stroke-miterlimit="10"/>
<path d="M170.834 347.149V357.239C170.834 358.124 170.483 358.972 169.857 359.597C169.232 360.223 168.384 360.574 167.499 360.574H110.949V343.814H167.499C168.384 343.814 169.232 344.166 169.857 344.791C170.483 345.416 170.834 346.265 170.834 347.149Z" fill="#1B7FBD"/>
<path d="M110.95 343.814V360.574H73.225C72.7825 360.574 72.3445 360.485 71.9365 360.314C71.529 360.143 71.159 359.892 70.8485 359.577C70.5385 359.261 70.294 358.887 70.1295 358.477C69.9645 358.066 69.8835 357.627 69.89 357.184L70.07 347.079C70.087 346.206 70.446 345.375 71.07 344.765C71.6935 344.154 72.532 343.813 73.405 343.814H110.95Z" fill="#D7E8F0"/>
<path d="M164.345 360.574V388.899C164.339 390.447 163.721 391.929 162.626 393.021C161.531 394.114 160.047 394.728 158.5 394.729H116.64V360.574H164.345Z" fill="#1B7FBD"/>
<path d="M116.64 360.574V394.729H80.4999C78.9549 394.726 77.4744 394.11 76.3819 393.018C75.2894 391.925 74.6739 390.444 74.6699 388.899V360.574H116.64Z" fill="#25C5C1"/>
<path d="M105.609 394.725V420.715" stroke="black" stroke-width="4.13" stroke-miterlimit="10"/>
<path d="M114.42 420.715V473.64" stroke="black" stroke-width="4.13" stroke-miterlimit="10"/>
<path d="M170.834 347.149V357.239C170.834 358.124 170.483 358.972 169.857 359.597C169.232 360.223 168.384 360.574 167.499 360.574H110.949V343.814H167.499C168.384 343.814 169.232 344.166 169.857 344.791C170.483 345.416 170.834 346.265 170.834 347.149Z" stroke="black" stroke-width="4.13" stroke-miterlimit="10"/>
<path d="M110.95 343.814V360.574H73.225C72.7825 360.574 72.3445 360.485 71.9365 360.314C71.529 360.143 71.159 359.892 70.8485 359.577C70.5385 359.261 70.294 358.887 70.1295 358.477C69.9645 358.066 69.8835 357.627 69.89 357.184L70.07 347.079C70.087 346.206 70.446 345.375 71.07 344.765C71.6935 344.154 72.532 343.813 73.405 343.814H110.95Z" stroke="black" stroke-width="4.13" stroke-miterlimit="10"/>
<path d="M164.345 360.574V388.899C164.339 390.447 163.721 391.929 162.626 393.021C161.531 394.114 160.047 394.728 158.5 394.729H116.64V360.574H164.345Z" stroke="black" stroke-width="4.13" stroke-miterlimit="10"/>
<path d="M116.64 360.574V394.729H80.4999C78.9549 394.726 77.4744 394.11 76.3819 393.018C75.2894 391.925 74.6739 390.444 74.6699 388.899V360.574H116.64Z" stroke="black" stroke-width="4.13" stroke-miterlimit="10"/>
<path d="M122.529 343.81C136.354 339.81 157.629 324.715 141.089 312.215C139.308 310.768 137.241 309.714 135.024 309.12C134.945 309.085 134.86 309.065 134.774 309.06C133.513 308.764 132.197 308.792 130.949 309.142C129.702 309.492 128.563 310.152 127.639 311.06" stroke="black" stroke-width="4.13" stroke-miterlimit="10"/>
<path d="M127.64 311.05C119.215 318.625 118.835 343.81 118.835 343.81H116.595C116.595 343.81 108.26 298.58 127.64 311.05Z" stroke="black" stroke-width="4.13" stroke-miterlimit="10"/>
<path d="M120.285 343.811H118.835C118.835 343.811 119.215 318.626 127.64 311.051C128.227 311.41 128.796 311.799 129.345 312.216C145.915 324.716 134.08 339.836 120.285 343.811Z" stroke="black" stroke-width="4.13" stroke-miterlimit="10"/>
<path d="M119.444 309.31C120.909 308.779 122.428 308.413 123.974 308.22C127.673 307.899 131.4 308.202 134.999 309.115" stroke="black" stroke-width="4.13" stroke-miterlimit="10"/>
<path d="M111.999 343.81C102.944 343.03 87.9142 336.24 96.6492 326.48C97.5767 325.365 98.7302 324.46 100.034 323.825C100.078 323.794 100.127 323.771 100.179 323.755C100.925 323.419 101.743 323.275 102.559 323.339C103.374 323.403 104.16 323.672 104.844 324.12" stroke="black" stroke-width="4.13" stroke-miterlimit="10"/>
<path d="M104.819 324.121C110.969 327.791 114.264 343.366 114.264 343.366L115.654 343.091C115.654 343.091 115.319 314.031 104.819 324.121Z" stroke="black" stroke-width="4.13" stroke-miterlimit="10"/>
<path d="M113.365 343.539L114.265 343.364C114.265 343.364 110.97 327.789 104.82 324.119C104.53 324.379 104.225 324.704 103.905 325.049C95.1546 334.814 104.33 342.749 113.365 343.539Z" stroke="black" stroke-width="4.13" stroke-miterlimit="10"/>
<path d="M109.695 322.044C108.721 321.892 107.733 321.85 106.75 321.919C104.412 322.17 102.134 322.812 100.01 323.819" stroke="black" stroke-width="4.13" stroke-miterlimit="10"/>
<path d="M406 140.501L407.955 144.001C407.955 144.001 405.095 150.361 412.76 151.461C420.425 152.561 430.515 145.026 430.79 140.051C442.565 144.601 448.79 156.051 448.9 168.311C449.1 198.661 410.05 217.061 383.955 214.311C370.84 212.936 358.455 207.151 348.115 198.986C346.735 197.916 345.41 196.791 344.115 195.631C341.495 193.241 339.039 190.677 336.765 187.956C335.589 186.556 334.442 185.124 333.325 183.661" stroke="black" stroke-width="3.77" stroke-miterlimit="10"/>
<path d="M422.735 126.26L430.245 140.585" stroke="black" stroke-width="4.13" stroke-miterlimit="10"/>
<path d="M32.8447 473.635H467.155" stroke="black" stroke-width="4.13" stroke-miterlimit="10"/>
<path d="M332.5 70.6055H332.435C330.015 71.0155 327.105 73.1705 325.595 75.9605C323.865 79.1155 323.665 82.9605 323.295 84.5905C323.255 84.7755 323.215 84.9555 323.195 85.1205C323.152 85.2595 323.119 85.4015 323.095 85.5455L323.03 85.7905C322.799 86.58 322.281 87.2545 321.578 87.6815C320.875 88.109 320.038 88.2585 319.231 88.101C318.424 87.943 317.704 87.4895 317.214 86.829C316.724 86.1685 316.498 85.349 316.58 84.5305L316.72 83.3905C316.765 82.9805 316.825 82.5955 316.905 82.2105C317.067 81.0935 317.313 79.9905 317.64 78.9105C317.684 78.741 317.737 78.574 317.8 78.4105C317.861 78.1525 317.943 77.9 318.045 77.6555C318.093 77.524 318.148 77.3955 318.21 77.2705" stroke="black" stroke-width="4.13" stroke-miterlimit="10"/>
<path d="M338.641 93.3808C337.127 94.8308 335.681 95.5538 334.301 95.5508C333.716 95.5513 333.137 95.4198 332.61 95.1658C332.115 94.9433 331.668 94.6258 331.296 94.2308C330.046 92.9458 330.096 90.7908 330.691 89.3458C331.121 88.4078 331.704 87.5478 332.416 86.8008C332.641 86.5458 332.861 86.3008 333.056 86.0358C333.714 85.2863 334.211 84.4098 334.516 83.4608C334.516 83.4058 334.516 83.3558 334.541 83.3008" stroke="black" stroke-width="4.13" stroke-miterlimit="10"/>
<path d="M326.771 69.2051C327.706 69.3801 328.606 69.5951 329.526 69.8051C330.446 70.0151 331.466 70.3051 332.426 70.6051C334.625 71.2556 336.685 72.3081 338.501 73.7101C343.431 77.3551 344.466 83.5701 340.911 88.1551" stroke="black" stroke-width="4.13" stroke-miterlimit="10"/>
<path d="M323.296 84.5892C323.296 84.6342 323.295 84.6742 323.27 84.7292C323.258 84.8972 323.235 85.0642 323.201 85.2292L323.091 86.3692C323.026 86.9852 323.135 87.6072 323.407 88.1637C323.68 88.7197 324.103 89.1882 324.629 89.5152C325.155 89.8417 325.763 90.0137 326.382 90.0107C327.002 90.0082 327.608 89.8307 328.131 89.4992C328.507 89.2662 328.832 88.9572 329.083 88.5922C329.334 88.2277 329.507 87.8147 329.591 87.3792C329.686 86.9542 329.766 86.4942 329.876 86.0592C330.276 84.3692 330.426 82.8592 331.686 81.5592C332.04 81.1917 332.463 80.8962 332.93 80.6892C333.048 80.6392 333.171 80.6002 333.296 80.5742" stroke="black" stroke-width="4.13" stroke-miterlimit="10"/>
<path d="M309.93 81.6008V81.4708C310.144 79.3083 310.715 77.1963 311.62 75.2208C312.18 73.9858 312.931 72.8468 313.845 71.8458C315.278 70.2303 317.217 69.1508 319.345 68.7858C319.96 68.6958 320.565 68.6358 321.185 68.6058C323.054 68.5793 324.92 68.7808 326.74 69.2058C325.24 69.3208 322.67 70.9258 320.815 72.9458C320.073 73.7113 319.452 74.5863 318.975 75.5408C318.74 76.0408 318.475 76.5908 318.29 77.1208C318.1 77.5508 317.935 77.9858 317.79 78.4108C317.355 79.6408 316.98 80.8558 316.695 81.9758C316.565 82.4758 316.445 82.9758 316.35 83.4258C316.195 84.2593 315.739 85.0063 315.069 85.5253C314.399 86.0448 313.561 86.2993 312.715 86.2408C311.855 86.1403 311.068 85.7043 310.527 85.0273C309.986 84.3503 309.734 83.4873 309.825 82.6258L309.925 81.6008" stroke="black" stroke-width="4.13" stroke-miterlimit="10"/>
<path d="M306 169.154C305.15 167.449 304.6 165.579 305.42 163.949C307.275 160.249 313.24 162.209 316.73 159.949C319.73 158.024 319.425 155.739 321.065 152.889C322.98 149.554 326.43 150.889 329.065 152.549C332.43 154.654 339.78 162.049 351.565 169.334C355.231 171.613 358.739 174.137 362.065 176.889C371.33 184.524 394.41 197.754 414.475 162.164" stroke="black" stroke-width="3.84" stroke-miterlimit="10"/>
<path d="M333.811 184.254C332.166 182.579 330.376 180.809 328.066 180.389C325.601 179.934 323.141 181.099 320.646 181.219C314.501 181.499 309.941 175.774 306.776 170.499C306.516 170.074 306.276 169.619 306.021 169.164" stroke="black" stroke-width="3.84" stroke-miterlimit="10"/>
<path d="M319.15 176.09C319.15 176.09 313.275 179.245 310.775 176" stroke="black" stroke-width="3.84" stroke-miterlimit="10"/>
<path d="M307.29 171.385C307.29 171.385 312.065 174.635 315.415 171.925" stroke="black" stroke-width="3.84" stroke-miterlimit="10"/>
<path d="M305.075 167.09C305.075 167.09 309.23 169.635 311.015 167.81" stroke="black" stroke-width="3.84" stroke-miterlimit="10"/>
<path d="M75.7329 395H43.6131C42.9632 395 42.3392 395.532 41.8757 396.483C41.4121 397.433 41.146 398.726 41.1347 400.082L41.0004 415.733C40.9944 416.42 41.054 417.103 41.1759 417.742C41.2977 418.38 41.4793 418.961 41.71 419.452C41.9408 419.942 42.2161 420.332 42.5198 420.597C42.8235 420.863 43.1496 421 43.4789 421H113.522C113.847 421 114.17 420.866 114.47 420.606C114.771 420.346 115.045 419.964 115.275 419.483C115.505 419.003 115.688 418.432 115.812 417.804C115.936 417.176 116 416.503 116 415.823V400.172C116 398.8 115.739 397.485 115.274 396.515C114.809 395.545 114.179 395 113.522 395C113.522 395 84.1461 395 72.1757 395" fill="white"/>
<path d="M75.7329 395H43.6131C42.9632 395 42.3392 395.532 41.8757 396.483C41.4121 397.433 41.146 398.726 41.1347 400.082L41.0004 415.733C40.9944 416.42 41.054 417.103 41.1759 417.742C41.2977 418.38 41.4793 418.961 41.71 419.452C41.9408 419.942 42.2161 420.332 42.5198 420.597C42.8235 420.863 43.1496 421 43.4789 421H113.522C113.847 421 114.17 420.866 114.47 420.606C114.771 420.346 115.045 419.964 115.275 419.483C115.505 419.003 115.688 418.432 115.812 417.804C115.936 417.176 116 416.503 116 415.823V400.172C116 398.8 115.739 397.485 115.274 396.515C114.809 395.545 114.179 395 113.522 395C113.522 395 84.1461 395 72.1757 395" stroke="black" stroke-width="4.13" stroke-miterlimit="10"/>
<path d="M155.585 395H121.753C121.068 395 120.411 395.532 119.922 396.483C119.434 397.433 119.154 398.726 119.142 400.082L119 415.733C118.994 416.42 119.057 417.103 119.185 417.742C119.314 418.38 119.505 418.961 119.748 419.452C119.991 419.942 120.281 420.332 120.601 420.597C120.921 420.863 121.264 421 121.611 421H195.389C195.732 421 196.072 420.866 196.389 420.606C196.706 420.346 196.994 419.964 197.236 419.483C197.479 419.003 197.671 418.432 197.802 417.804C197.933 417.176 198 416.503 198 415.823V400.172C198 398.8 197.725 397.485 197.235 396.515C196.746 395.545 196.082 395 195.389 395C195.389 395 164.447 395 151.838 395" fill="#1B7FBD"/>
<path d="M155.585 395H121.753C121.068 395 120.411 395.532 119.922 396.483C119.434 397.433 119.154 398.726 119.142 400.082L119 415.733C118.994 416.42 119.057 417.103 119.185 417.742C119.314 418.38 119.505 418.961 119.748 419.452C119.991 419.942 120.281 420.332 120.601 420.597C120.921 420.863 121.264 421 121.611 421H195.389C195.732 421 196.072 420.866 196.389 420.606C196.706 420.346 196.994 419.964 197.236 419.483C197.479 419.003 197.671 418.432 197.802 417.804C197.933 417.176 198 416.503 198 415.823V400.172C198 398.8 197.725 397.485 197.235 396.515C196.746 395.545 196.082 395 195.389 395C195.389 395 164.447 395 151.838 395" stroke="black" stroke-width="4.13" stroke-miterlimit="10"/>
</svg>
