<svg width="500" height="500" viewBox="0 0 500 500" fill="none" xmlns="http://www.w3.org/2000/svg">
<path d="M112.36 279.164H59.9902V350.489H112.36V279.164Z" fill="#1BBD2B"/>
<path d="M70.4903 294.105C72.9203 294.105 74.8903 292.135 74.8903 289.705C74.8903 287.275 72.9203 285.305 70.4903 285.305C68.0603 285.305 66.0903 287.275 66.0903 289.705C66.0903 292.135 68.0603 294.105 70.4903 294.105Z" fill="#D7E8F0"/>
<path d="M70.4903 343.025C72.9203 343.025 74.8903 341.055 74.8903 338.625C74.8903 336.195 72.9203 334.225 70.4903 334.225C68.0603 334.225 66.0903 336.195 66.0903 338.625C66.0903 341.055 68.0603 343.025 70.4903 343.025Z" fill="#D7E8F0"/>
<path d="M313.22 461.826C324.4 457.996 333.865 453.051 342.16 446.646C348.673 441.576 354.502 435.684 359.5 429.116C362.865 424.761 366.71 418.181 370.68 409.891" stroke="#CCDDE2" stroke-width="4.48" stroke-miterlimit="10"/>
<path d="M403.285 282.955C404.985 259.08 403.935 235.095 398.635 213.2C387.81 168.63 359.315 132.75 300.37 124.395" stroke="#CCDDE2" stroke-width="4.48" stroke-miterlimit="10"/>
<path d="M132.465 212.04C131.835 207.16 131.185 202.295 130.6 197.445C118.5 98.59 195.03 101.805 195.03 101.805" stroke="#CCDDE2" stroke-width="4.48" stroke-miterlimit="10"/>
<path d="M103.03 351.5C98.1501 355.255 93.0301 358.805 88.0651 362.5C75.0301 372.295 65.6601 383.86 61.2251 399.765C55.9901 418.58 58.3551 440.015 71.8951 454.84C85.8101 470.065 107.435 474.575 127.245 474.575H158.745" stroke="#CCDDE2" stroke-width="4.48" stroke-miterlimit="10"/>
<path d="M97.9551 314.5C97.9551 318.412 99.5091 322.163 102.275 324.93C105.042 327.696 108.793 329.25 112.705 329.25V299.75C110.768 299.75 108.85 300.13 107.06 300.871C105.27 301.612 103.644 302.699 102.274 304.069C100.904 305.439 99.8176 307.065 99.0766 308.854C98.3356 310.644 97.9546 312.563 97.9551 314.5Z" fill="#1B7FBD"/>
<path d="M155.215 466.265H197.935C200.269 466.265 202.16 464.374 202.16 462.04V433.33C202.16 430.997 200.269 429.105 197.935 429.105H155.215C152.882 429.105 150.99 430.997 150.99 433.33V462.04C150.99 464.374 152.882 466.265 155.215 466.265Z" fill="#1B7FBD"/>
<path d="M130.13 466.265H147.26C148.25 466.265 149.199 465.872 149.9 465.173C150.6 464.474 150.994 463.525 150.995 462.535V435.825C150.997 435.583 150.951 435.343 150.859 435.12C150.766 434.896 150.63 434.693 150.458 434.523C150.286 434.353 150.082 434.219 149.857 434.129C149.633 434.039 149.392 433.995 149.15 434L139.62 434.085C139.364 434.091 139.113 434.151 138.882 434.261C138.651 434.372 138.446 434.53 138.28 434.725L126.735 448.39C124.914 450.266 123.892 452.776 123.885 455.39V459.985C123.881 460.808 124.039 461.624 124.351 462.386C124.662 463.147 125.122 463.84 125.702 464.424C126.282 465.007 126.972 465.47 127.732 465.786C128.492 466.102 129.307 466.265 130.13 466.265Z" fill="#1B7FBD"/>
<path d="M176.58 458.46C182.531 458.46 187.355 453.636 187.355 447.685C187.355 441.735 182.531 436.91 176.58 436.91C170.629 436.91 165.805 441.735 165.805 447.685C165.805 453.636 170.629 458.46 176.58 458.46Z" fill="#F6EF98"/>
<path d="M146.065 446.856V439.306C146.065 439.082 145.977 438.868 145.82 438.71C145.662 438.552 145.449 438.462 145.225 438.461H141C140.872 438.462 140.745 438.492 140.63 438.549C140.515 438.606 140.414 438.689 140.335 438.791L134.5 446.341C134.404 446.466 134.345 446.615 134.329 446.772C134.314 446.929 134.342 447.088 134.412 447.229C134.482 447.371 134.59 447.49 134.724 447.573C134.858 447.657 135.012 447.701 135.17 447.701H145.21C145.322 447.702 145.433 447.681 145.537 447.639C145.64 447.597 145.735 447.535 145.814 447.457C145.894 447.378 145.957 447.285 146 447.181C146.043 447.078 146.065 446.968 146.065 446.856Z" fill="#D7E8F0"/>
<path d="M69.1802 328.705V300.385C75.6252 300.385 80.8502 295.855 80.8502 290.265V289.5H112.35V338.81H82.3002C82.3002 333.135 76.9152 328.57 70.3652 328.695L69.1802 328.705Z" fill="#D7E8F0"/>
<path d="M197.805 466.186V466.261C197.832 467.372 197.637 468.478 197.231 469.513C196.824 470.547 196.215 471.49 195.438 472.286C194.662 473.082 193.734 473.714 192.71 474.146C191.685 474.578 190.585 474.8 189.473 474.8C188.361 474.8 187.261 474.578 186.236 474.146C185.212 473.714 184.284 473.082 183.507 472.286C182.731 471.49 182.121 470.547 181.715 469.513C181.308 468.478 181.113 467.372 181.14 466.261" fill="#1B7FBD"/>
<path d="M147.26 466.26C147.26 468.47 146.382 470.59 144.819 472.153C143.256 473.716 141.136 474.595 138.925 474.595C136.715 474.595 134.595 473.716 133.031 472.153C131.468 470.59 130.59 468.47 130.59 466.26" fill="#1B7FBD"/>
<path d="M416.385 286.819V400.914C416.379 403.289 415.434 405.565 413.756 407.246C412.079 408.928 409.805 409.878 407.43 409.889H270.04L274.29 387.449C285.79 339.064 289.595 285.674 290.505 270.184C290.425 272.069 290.35 273.954 290.24 275.819C290.675 276.439 291.155 277.039 291.645 277.629C291.85 277.859 292.065 278.089 292.28 278.324C292.495 278.559 292.78 278.849 293.02 279.094C293.19 279.279 293.375 279.449 293.565 279.634L293.78 279.834C293.995 280.039 294.225 280.239 294.46 280.439C294.55 280.529 294.645 280.609 294.75 280.699C294.97 280.869 295.185 281.039 295.4 281.224C295.615 281.409 295.955 281.644 296.235 281.859C296.53 282.074 296.82 282.274 297.115 282.464C297.41 282.654 297.715 282.849 298.025 283.034C298.335 283.219 298.69 283.434 299.025 283.619C299.24 283.729 299.455 283.849 299.675 283.959C299.714 283.982 299.754 284.003 299.795 284.019C300.462 284.353 301.142 284.663 301.835 284.949C302.19 285.089 302.53 285.209 302.885 285.334C303.595 285.579 304.305 285.834 305.05 285.999L306.16 286.259C306.53 286.339 306.915 286.399 307.3 286.459C307.685 286.519 308.045 286.584 308.415 286.629H308.445C308.71 286.664 308.97 286.694 309.22 286.709C309.47 286.724 309.72 286.754 309.96 286.769C309.99 286.769 310.02 286.769 310.05 286.769C310.3 286.799 310.55 286.799 310.795 286.819H311.625C313.391 286.822 315.152 286.641 316.88 286.279C320.565 285.534 324.048 284.008 327.093 281.804C330.139 279.599 332.676 276.767 334.535 273.499C335.689 271.489 336.567 269.333 337.145 267.089C337.226 266.816 337.293 266.539 337.345 266.259C337.773 264.352 337.991 262.404 337.995 260.449C337.996 262.096 338.145 263.739 338.44 265.359C338.565 265.934 338.69 266.519 338.845 267.089C340.315 272.734 343.616 277.731 348.23 281.298C352.845 284.866 358.513 286.801 364.345 286.801C370.178 286.801 375.846 284.866 380.46 281.298C385.075 277.731 388.376 272.734 389.845 267.089C390.112 266.027 390.317 264.95 390.46 263.864C390.605 262.732 390.678 261.591 390.68 260.449C390.678 261.612 390.754 262.773 390.91 263.924C391.046 264.992 391.251 266.049 391.525 267.089C392.974 272.623 396.181 277.536 400.662 281.09C405.143 284.645 410.657 286.648 416.375 286.799L416.385 286.819Z" fill="#D7E8F0"/>
<path d="M426.9 284.92V437.685C426.89 440.057 425.943 442.329 424.266 444.007C422.589 445.685 420.317 446.633 417.945 446.645H264.175C265.3 435.8 267.4 423.445 269.965 409.89H407.43C409.805 409.878 412.079 408.928 413.756 407.247C415.434 405.565 416.379 403.29 416.385 400.915V286.82C416.6 286.82 416.82 286.82 417.035 286.82C417.163 286.827 417.292 286.827 417.42 286.82C420.671 286.785 423.887 286.141 426.9 284.92Z" fill="#1B7FBD"/>
<path d="M135.275 276.795H134.835C131.337 276.795 128.5 279.631 128.5 283.13V283.57C128.5 287.068 131.337 289.905 134.835 289.905H135.275C138.773 289.905 141.61 287.068 141.61 283.57V283.13C141.61 279.631 138.773 276.795 135.275 276.795Z" fill="#D7E8F0"/>
<path d="M159.585 276.795H159.145C155.647 276.795 152.81 279.631 152.81 283.13V283.57C152.81 287.068 155.647 289.905 159.145 289.905H159.585C163.084 289.905 165.92 287.068 165.92 283.57V283.13C165.92 279.631 163.084 276.795 159.585 276.795Z" fill="#D7E8F0"/>
<path d="M183.895 276.795H183.455C179.957 276.795 177.12 279.631 177.12 283.13V283.57C177.12 287.068 179.957 289.905 183.455 289.905H183.895C187.394 289.905 190.23 287.068 190.23 283.57V283.13C190.23 279.631 187.394 276.795 183.895 276.795Z" fill="#D7E8F0"/>
<path d="M135.275 297.039H134.835C131.337 297.039 128.5 299.876 128.5 303.374V303.814C128.5 307.313 131.337 310.149 134.835 310.149H135.275C138.773 310.149 141.61 307.313 141.61 303.814V303.374C141.61 299.876 138.773 297.039 135.275 297.039Z" fill="#D7E8F0"/>
<path d="M159.585 297.039H159.145C155.647 297.039 152.81 299.876 152.81 303.374V303.814C152.81 307.313 155.647 310.149 159.145 310.149H159.585C163.084 310.149 165.92 307.313 165.92 303.814V303.374C165.92 299.876 163.084 297.039 159.585 297.039Z" fill="#D7E8F0"/>
<path d="M183.895 297.039H183.455C179.957 297.039 177.12 299.876 177.12 303.374V303.814C177.12 307.313 179.957 310.149 183.455 310.149H183.895C187.394 310.149 190.23 307.313 190.23 303.814V303.374C190.23 299.876 187.394 297.039 183.895 297.039Z" fill="#D7E8F0"/>
<path d="M135.275 317.285H134.835C131.337 317.285 128.5 320.122 128.5 323.62V324.06C128.5 327.559 131.337 330.395 134.835 330.395H135.275C138.773 330.395 141.61 327.559 141.61 324.06V323.62C141.61 320.122 138.773 317.285 135.275 317.285Z" fill="#D7E8F0"/>
<path d="M159.585 317.285H159.145C155.647 317.285 152.81 320.122 152.81 323.62V324.06C152.81 327.559 155.647 330.395 159.145 330.395H159.585C163.084 330.395 165.92 327.559 165.92 324.06V323.62C165.92 320.122 163.084 317.285 159.585 317.285Z" fill="#D7E8F0"/>
<path d="M183.895 317.285H183.455C179.957 317.285 177.12 320.122 177.12 323.62V324.06C177.12 327.559 179.957 330.395 183.455 330.395H183.895C187.394 330.395 190.23 327.559 190.23 324.06V323.62C190.23 320.122 187.394 317.285 183.895 317.285Z" fill="#D7E8F0"/>
<path d="M203.93 386.499C202.269 388.021 200.098 388.865 197.845 388.864H121.43C119.037 388.866 116.74 387.92 115.042 386.234C113.343 384.547 112.381 382.258 112.365 379.864V221.089C112.369 218.688 113.326 216.386 115.026 214.689C116.725 212.992 119.029 212.039 121.43 212.039H192.87L194.215 214.539C189.92 225.659 187.28 240.409 187.635 259.944C188.47 305.499 196.685 349.269 203.93 386.499Z" stroke="#CCDDE2" stroke-width="4.48" stroke-miterlimit="10"/>
<path d="M188.685 237.721H129.94C129.144 237.721 128.381 238.037 127.818 238.6C127.256 239.162 126.94 239.925 126.94 240.721V262.721C126.94 263.517 127.256 264.28 127.818 264.842C128.381 265.405 129.144 265.721 129.94 265.721H187.79L188.685 237.721Z" fill="#D7E8F0"/>
<path d="M188.16 240.695H133.45C131.95 240.695 130.675 241.755 130.675 243.055V260.405C130.675 261.705 131.925 262.765 133.45 262.765H187.325L188.16 240.695Z" fill="#1B7FBD"/>
<path d="M129.845 353.125H189.425C191.021 353.125 192.315 351.831 192.315 350.235V344.34C192.315 342.744 191.021 341.45 189.425 341.45H129.845C128.249 341.45 126.955 342.744 126.955 344.34V350.235C126.955 351.831 128.249 353.125 129.845 353.125Z" fill="#D7E8F0"/>
<path d="M188.16 346.831C188.159 347.078 188.105 347.321 188.001 347.546C187.898 347.77 187.747 347.969 187.56 348.131C186.359 349.225 185.399 350.557 184.743 352.043C184.086 353.529 183.746 355.136 183.745 356.761V403.761C183.745 405.024 183.496 406.276 183.013 407.443C182.529 408.611 181.82 409.671 180.926 410.565C180.032 411.458 178.971 412.167 177.803 412.65C176.635 413.133 175.384 413.381 174.12 413.381H173.41C169.165 413.381 164.995 409.986 164.41 405.786C164.033 403.234 162.703 400.919 160.689 399.307C158.676 397.694 156.126 396.904 153.553 397.093C150.98 397.283 148.575 398.44 146.819 400.33C145.064 402.221 144.089 404.706 144.09 407.286V433.586C142.84 433.771 140.12 434.146 139.64 434.146C139.16 434.146 131.58 442.856 128.29 446.686H86.5902C85.4257 446.686 84.3092 446.223 83.4862 445.4C82.6627 444.577 82.2002 443.46 82.2002 442.296V406.076C82.2007 404.734 82.4657 403.405 82.9802 402.166C83.4947 400.926 84.2477 399.8 85.1972 398.852C86.1472 397.904 87.2742 397.152 88.5142 396.64C89.7542 396.127 91.0832 395.864 92.4252 395.866H114.14C115.389 395.87 116.626 395.627 117.78 395.151C118.935 394.675 119.984 393.975 120.867 393.092C121.75 392.209 122.449 391.16 122.925 390.006C123.401 388.852 123.644 387.614 123.64 386.366V356.761C123.643 353.665 124.874 350.697 127.063 348.508C129.252 346.319 132.22 345.088 135.315 345.086H186.43C186.891 345.088 187.332 345.274 187.656 345.601C187.98 345.928 188.162 346.37 188.16 346.831Z" fill="#D7E8F0"/>
<path d="M294.89 284.41C295.134 284.246 295.407 284.13 295.695 284.07C295.405 284.124 295.131 284.24 294.89 284.41Z" fill="#1B7FBD"/>
<path d="M307.665 159.404H352.11C354.482 159.416 356.754 160.364 358.431 162.042C360.108 163.72 361.055 165.992 361.065 168.364V194.124C361.053 196.495 360.106 198.766 358.429 200.443C356.752 202.12 354.482 203.067 352.11 203.079H306.18C305.245 203.075 304.328 203.334 303.533 203.825C302.737 204.317 302.095 205.021 301.68 205.859C304.5 194.909 308 177.444 307.665 159.404Z" fill="#D7E8F0"/>
<path d="M443.38 235.176V260.471C443.382 265.727 441.811 270.863 438.871 275.22C435.931 279.577 431.755 282.955 426.88 284.921C423.861 286.144 420.638 286.789 417.38 286.821C417.252 286.828 417.124 286.828 416.995 286.821C416.78 286.821 416.56 286.821 416.345 286.821C410.627 286.669 405.113 284.666 400.632 281.111C396.151 277.557 392.944 272.644 391.495 267.111C391.221 266.07 391.016 265.013 390.88 263.946C390.724 262.794 390.648 261.633 390.65 260.471C390.648 261.612 390.575 262.753 390.43 263.886C390.287 264.971 390.082 266.048 389.815 267.111C388.346 272.755 385.045 277.752 380.43 281.319C375.816 284.887 370.148 286.822 364.315 286.822C358.483 286.822 352.815 284.887 348.2 281.319C343.586 277.752 340.285 272.755 338.815 267.111C338.66 266.541 338.535 265.956 338.41 265.381C338.115 263.761 337.966 262.117 337.965 260.471C337.961 262.425 337.743 264.373 337.315 266.281C337.263 266.56 337.196 266.837 337.115 267.111C336.544 269.346 335.677 271.495 334.535 273.501C332.678 276.765 330.143 279.595 327.101 281.798C324.06 284.002 320.581 285.528 316.9 286.276C315.172 286.637 313.411 286.818 311.645 286.816H310.815C310.565 286.816 310.315 286.816 310.07 286.766C310.04 286.766 310.01 286.766 309.98 286.766C309.73 286.766 309.48 286.736 309.24 286.706C309 286.676 308.74 286.661 308.465 286.626H308.435C308.065 286.581 307.68 286.521 307.32 286.456C306.96 286.391 306.55 286.336 306.18 286.256L305.07 285.996C304.325 285.811 303.615 285.576 302.905 285.331C302.55 285.206 302.21 285.086 301.855 284.946C301.159 284.666 300.479 284.356 299.815 284.016C299.774 283.999 299.734 283.979 299.695 283.956C299.475 283.846 299.26 283.726 299.045 283.616C298.705 283.431 298.365 283.246 298.045 283.031C297.725 282.816 297.445 282.661 297.135 282.461C296.825 282.261 296.55 282.071 296.255 281.856C295.975 281.641 295.7 281.441 295.42 281.221C295.14 281.001 294.99 280.866 294.77 280.696C294.665 280.606 294.57 280.526 294.48 280.436C294.245 280.236 294.015 280.036 293.8 279.831L293.585 279.631C293.395 279.446 293.21 279.276 293.04 279.091C292.78 278.846 292.54 278.591 292.3 278.321C292.06 278.051 291.87 277.856 291.665 277.626C291.165 277.036 290.695 276.436 290.26 275.816C290.37 273.951 290.445 272.066 290.525 270.181C290.555 269.596 290.585 269.086 290.6 268.606C290.71 265.606 290.8 262.566 290.865 259.541C291.205 240.946 288.825 226.706 284.905 215.791L288.285 209.381C293.43 213.581 297.49 216.841 298.325 217.331C298.325 217.331 300.93 208.481 302.52 202.551C302.52 202.641 306.2 202.981 306.2 203.076L316.92 202.551C316.92 205.331 315.39 212.051 323.945 213.196H421.445C427.268 213.205 432.848 215.525 436.961 219.646C441.074 223.768 443.383 229.353 443.38 235.176Z" fill="#D7E8F0"/>
<path d="M285.5 217.41C285.5 217.41 292.3 238.24 290.63 271.19C290.63 271.19 296.675 281.1 312.13 281.1C326.48 281.1 333.38 271.33 337.18 258.6C337.231 258.431 337.335 258.282 337.478 258.176C337.62 258.07 337.793 258.013 337.97 258.013C338.148 258.013 338.32 258.07 338.462 258.176C338.605 258.282 338.709 258.431 338.76 258.6C340.815 265.57 347.5 282.485 364.125 283.475C380.555 284.475 387.745 266.905 390.095 259.25C390.148 259.078 390.256 258.927 390.402 258.822C390.549 258.717 390.727 258.662 390.907 258.667C391.088 258.673 391.262 258.737 391.402 258.85C391.543 258.964 391.642 259.12 391.685 259.295C393.345 265.935 398.885 279.795 416.445 281.98C416.558 281.995 416.672 281.995 416.785 281.98C419.636 281.956 422.455 281.391 425.095 280.315C429.365 278.591 433.021 275.629 435.595 271.81C438.169 267.991 439.543 263.491 439.54 258.885V236.675C439.54 231.566 437.51 226.666 433.897 223.053C430.284 219.44 425.384 217.41 420.275 217.41H285.5Z" fill="#1B7FBD"/>
<path d="M319.915 329.7V358.405C319.901 363.316 317.943 368.022 314.47 371.495C310.998 374.968 306.292 376.925 301.38 376.94H276.41C277.875 369.44 279.41 361.71 280.91 353.71C281.155 352.385 281.41 351.055 281.665 349.71C282.035 347.71 282.405 345.688 282.775 343.645C283.24 341.035 283.72 338.405 284.165 335.765C285.555 327.765 286.885 319.55 288.09 311.18H301.4C306.306 311.2 311.004 313.157 314.472 316.626C317.94 320.095 319.897 324.795 319.915 329.7Z" fill="#1B7FBD"/>
<path d="M352.435 376.946H380.455C390.341 376.946 398.355 368.931 398.355 359.046V329.066C398.355 319.18 390.341 311.166 380.455 311.166H352.435C342.549 311.166 334.535 319.18 334.535 329.066V359.046C334.535 368.931 342.549 376.946 352.435 376.946Z" fill="#1B7FBD"/>
<path d="M281.645 349.695H305.58V346.625C305.579 344.747 304.833 342.946 303.506 341.617C302.179 340.288 300.379 339.539 298.5 339.535H297.095V343.92C297.095 344.168 296.997 344.406 296.821 344.582C296.646 344.757 296.408 344.855 296.16 344.855C295.912 344.855 295.674 344.757 295.499 344.582C295.324 344.406 295.225 344.168 295.225 343.92V339.535H293.725V343.92C293.708 344.156 293.602 344.376 293.429 344.537C293.256 344.698 293.029 344.787 292.793 344.787C292.557 344.787 292.329 344.698 292.156 344.537C291.983 344.376 291.878 344.156 291.86 343.92V339.535H286.65" stroke="white" stroke-width="4.48" stroke-miterlimit="10"/>
<path d="M304.745 366.706C304.743 366.971 304.689 367.233 304.585 367.476C304.481 367.72 304.33 367.941 304.14 368.126C303.767 368.498 303.262 368.708 302.735 368.711H277.89C278.135 367.386 278.39 366.056 278.645 364.711H302.735C303.265 364.715 303.771 364.926 304.147 365.298C304.523 365.671 304.737 366.176 304.745 366.706Z" stroke="white" stroke-width="4.48" stroke-miterlimit="10"/>
<path d="M283.645 354.535C283.645 355.586 283.241 356.597 282.517 357.359C281.793 358.121 280.804 358.576 279.755 358.63C280.22 356.02 280.7 353.39 281.145 350.75C281.887 351.065 282.52 351.592 282.965 352.266C283.41 352.939 283.646 353.729 283.645 354.535Z" stroke="white" stroke-width="4.48" stroke-miterlimit="10"/>
<path d="M290.74 353.595V358.915C290.75 359.044 290.732 359.172 290.69 359.294C290.647 359.415 290.58 359.526 290.493 359.62C290.405 359.714 290.299 359.79 290.181 359.841C290.063 359.892 289.936 359.919 289.808 359.919C289.679 359.919 289.552 359.892 289.434 359.841C289.316 359.79 289.21 359.714 289.123 359.62C289.035 359.526 288.968 359.415 288.926 359.294C288.883 359.172 288.866 359.044 288.875 358.915V353.595C288.893 353.36 288.998 353.14 289.171 352.979C289.344 352.818 289.572 352.729 289.808 352.729C290.044 352.729 290.271 352.818 290.444 352.979C290.617 353.14 290.723 353.36 290.74 353.595Z" stroke="white" stroke-width="4.48" stroke-miterlimit="10"/>
<path d="M294.1 353.595V358.915C294.109 359.044 294.092 359.172 294.049 359.294C294.007 359.415 293.94 359.526 293.853 359.62C293.765 359.714 293.659 359.79 293.541 359.841C293.423 359.892 293.296 359.919 293.168 359.919C293.039 359.919 292.912 359.892 292.794 359.841C292.676 359.79 292.57 359.714 292.483 359.62C292.395 359.526 292.328 359.415 292.285 359.294C292.242 359.172 292.225 359.044 292.235 358.915V353.595C292.252 353.36 292.358 353.14 292.531 352.979C292.704 352.818 292.932 352.729 293.168 352.729C293.404 352.729 293.631 352.818 293.804 352.979C293.977 353.14 294.082 353.36 294.1 353.595Z" stroke="white" stroke-width="4.48" stroke-miterlimit="10"/>
<path d="M380.5 330.745C381.58 328.15 382.62 326.095 383.24 324.935C383.389 324.651 383.421 324.319 383.327 324.012C383.233 323.706 383.023 323.448 382.74 323.295L376.21 320.545C375.956 320.398 375.668 320.321 375.375 320.321C375.082 320.321 374.794 320.398 374.54 320.545C374.286 320.692 374.076 320.904 373.93 321.159C373.784 321.413 373.709 321.702 373.71 321.995C373.71 327.7 372.07 333.07 366.37 333.07C360.665 333.07 359.03 327.7 359.03 321.995V321.75C359.028 321.471 358.955 321.196 358.82 320.952C358.684 320.708 358.488 320.501 358.252 320.352C358.016 320.203 357.746 320.115 357.467 320.097C357.188 320.08 356.909 320.132 356.655 320.25L350 322.705C349.834 322.778 349.686 322.888 349.567 323.025C349.448 323.163 349.361 323.325 349.314 323.501C349.266 323.676 349.257 323.86 349.29 324.039C349.322 324.218 349.394 324.388 349.5 324.535L349.59 324.66C353.172 329.649 355.373 335.495 355.972 341.607C356.57 347.719 355.545 353.881 353 359.47L350.65 364.64C350.485 365.006 350.414 365.407 350.443 365.807C350.473 366.207 350.602 366.593 350.819 366.93C351.037 367.268 351.335 367.545 351.687 367.737C352.039 367.929 352.434 368.03 352.835 368.03H381.835C382.243 368.031 382.645 367.927 383.002 367.73C383.359 367.532 383.659 367.246 383.874 366.899C384.09 366.553 384.213 366.157 384.232 365.749C384.252 365.341 384.167 364.936 383.985 364.57L381.5 359.6C379.284 355.141 378.047 350.258 377.875 345.281C377.703 340.304 378.598 335.347 380.5 330.745Z" stroke="white" stroke-width="4.48" stroke-miterlimit="10"/>
<path d="M356.085 347.215H378.01" stroke="white" stroke-width="4.48" stroke-miterlimit="10"/>
<path d="M361.025 347.221C361.13 350.951 361.06 360.566 357.995 368.031" stroke="white" stroke-width="4.48" stroke-miterlimit="10"/>
<path d="M376.08 368.031C373.005 360.566 372.945 350.951 373.05 347.221" stroke="white" stroke-width="4.48" stroke-miterlimit="10"/>
<path d="M367.05 368.031V347.221" stroke="white" stroke-width="4.48" stroke-miterlimit="10"/>
<g opacity="0.54">
<path opacity="0.54" d="M241.765 474.596H329.3V474.316C329.299 471.993 328.375 469.767 326.733 468.125C325.09 466.483 322.863 465.561 320.54 465.561H320.39C319.241 465.562 318.103 465.335 317.041 464.896C315.979 464.456 315.014 463.811 314.202 462.997C313.389 462.184 312.745 461.219 312.307 460.156C311.868 459.094 311.643 457.955 311.645 456.806V446.641H264.175C264.175 446.641 259.755 469.256 258.02 472.731C257.823 473.19 257.537 473.605 257.177 473.951C256.818 474.298 256.393 474.569 255.927 474.749C255.461 474.929 254.964 475.014 254.465 474.999C253.965 474.983 253.474 474.869 253.02 474.661L241.765 474.596Z" fill="#1B7FBD"/>
</g>
<path d="M312.865 176.195C309.07 176.195 306.72 179.05 306.72 182.65C306.72 186.09 308.835 188.965 312.665 188.965C316.465 188.965 318.86 186.43 318.86 182.465C318.875 179.14 316.85 176.195 312.865 176.195ZM312.835 186.34H312.79C311.2 186.34 310.21 184.795 310.225 182.585C310.24 180.375 311.2 178.82 312.79 178.82C314.38 178.82 315.37 180.425 315.37 182.555C315.37 184.795 314.425 186.34 312.835 186.34Z" fill="white"/>
<path d="M329.5 185.225C329.175 184.16 328.73 183.375 327.91 183.005V182.94C328.519 182.704 329.045 182.294 329.422 181.76C329.798 181.226 330.008 180.593 330.025 179.94C330.056 179.43 329.963 178.921 329.753 178.456C329.543 177.991 329.223 177.584 328.82 177.27C327.88 176.545 326.52 176.295 324.62 176.295C323.525 176.295 322.52 176.36 321.685 176.435C321.393 176.468 321.122 176.607 320.926 176.827C320.73 177.046 320.621 177.33 320.62 177.625V187.125C320.62 187.561 320.794 187.979 321.102 188.288C321.411 188.596 321.829 188.77 322.265 188.77C322.702 188.77 323.12 188.596 323.428 188.288C323.737 187.979 323.91 187.561 323.91 187.125V184.125H324.45C325.45 184.125 325.95 184.45 326.255 185.915C326.41 186.595 326.565 187.15 326.705 187.615C326.807 187.952 327.015 188.248 327.299 188.457C327.583 188.666 327.928 188.778 328.28 188.775H328.31C328.561 188.773 328.807 188.715 329.032 188.604C329.256 188.493 329.453 188.332 329.606 188.134C329.759 187.936 329.865 187.706 329.916 187.461C329.967 187.216 329.962 186.962 329.9 186.72C329.775 186.2 329.64 185.675 329.5 185.225ZM324.775 181.725H323.91V178.825C324.282 178.764 324.659 178.737 325.035 178.745C326.135 178.745 326.735 179.285 326.735 180.2C326.735 181.115 326.04 181.735 324.79 181.735L324.775 181.725Z" fill="white"/>
<path d="M338.935 186.045H336.435C336.134 186.045 335.845 185.925 335.632 185.712C335.419 185.499 335.3 185.211 335.3 184.91C335.3 184.609 335.419 184.32 335.632 184.107C335.845 183.894 336.134 183.775 336.435 183.775H338.395C338.578 183.786 338.761 183.76 338.934 183.697C339.107 183.635 339.265 183.538 339.398 183.412C339.532 183.286 339.639 183.134 339.711 182.966C339.784 182.797 339.822 182.616 339.822 182.432C339.822 182.249 339.784 182.067 339.711 181.899C339.639 181.73 339.532 181.578 339.398 181.453C339.265 181.327 339.107 181.23 338.934 181.167C338.761 181.105 338.578 181.079 338.395 181.09H336.34C336.061 181.09 335.794 180.979 335.597 180.782C335.4 180.585 335.29 180.318 335.29 180.04C335.29 179.761 335.4 179.494 335.597 179.297C335.794 179.1 336.061 178.99 336.34 178.99H338.675C338.85 178.991 339.024 178.958 339.187 178.891C339.349 178.825 339.497 178.727 339.622 178.604C339.746 178.48 339.845 178.333 339.913 178.171C339.98 178.009 340.015 177.835 340.015 177.66V177.615C340.015 177.438 339.981 177.264 339.914 177.1C339.847 176.937 339.749 176.789 339.624 176.664C339.5 176.539 339.352 176.44 339.189 176.372C339.026 176.305 338.851 176.27 338.675 176.27H333.375C333 176.272 332.642 176.423 332.379 176.69C332.116 176.956 331.968 177.315 331.97 177.69V187.635C331.972 187.936 332.094 188.224 332.309 188.436C332.523 188.648 332.813 188.766 333.115 188.765H338.935C339.11 188.764 339.284 188.729 339.446 188.661C339.608 188.593 339.755 188.493 339.879 188.368C340.003 188.243 340.1 188.095 340.166 187.933C340.233 187.77 340.266 187.596 340.265 187.42V187.39C340.266 187.214 340.233 187.04 340.166 186.877C340.1 186.714 340.003 186.566 339.879 186.441C339.755 186.316 339.608 186.217 339.446 186.149C339.284 186.081 339.11 186.045 338.935 186.045Z" fill="white"/>
<path d="M276.59 311.544V337.149C276.589 338.378 276.1 339.555 275.231 340.423C274.362 341.292 273.184 341.779 271.955 341.779H206.675C206.221 341.777 205.77 341.71 205.335 341.579C205.318 341.547 205.308 341.511 205.305 341.474C205.098 340.958 204.993 340.406 204.995 339.849V314.244C204.987 308.792 207.079 303.546 210.838 299.597C214.598 295.648 219.734 293.299 225.18 293.039C225.535 293.039 225.875 293.009 226.23 293.009H258.305C258.594 293.004 258.883 293.014 259.17 293.039C260.555 293.086 261.932 293.272 263.28 293.594C266.104 294.272 268.758 295.525 271.075 297.274C274.633 301.174 276.601 306.265 276.59 311.544Z" fill="#F6EF98"/>
<path d="M298.465 217.721C298.165 217.533 297.876 217.328 297.6 217.106C295.995 215.916 292.6 213.181 288.52 209.846C277.65 200.981 261.91 187.846 261.91 187.846L261.385 189.761L259.27 197.436C259.27 197.436 259.27 197.436 259.24 197.436C239 208.071 223.15 198.866 222.5 198.501L220.895 191.751L220.46 189.926L192.155 210.716L183.35 217.216C178.765 204.581 152 124.441 203.97 101.501C210.75 107.311 224.675 116.081 240.88 114.411C241.695 114.336 242.515 114.226 243.3 114.121C246.1 113.847 248.868 113.304 251.565 112.501L251.655 112.471C264.815 108.606 273.835 99.6657 275.025 98.4707C330.96 125.501 298.465 217.721 298.465 217.721Z" fill="#23EAE6"/>
<path d="M261.065 67.6705C261.065 67.6705 259.18 67.7805 257.17 67.7505C254.9 67.7505 252.49 67.5305 252.57 66.8055C252.675 65.8055 254.53 62.1105 254.625 59.5805C254.655 58.5805 254.42 57.8005 253.74 57.4005C251.95 56.4005 244.895 50.0805 240.985 45.7405C240.725 45.4455 240.485 45.1705 240.245 44.8905C239.135 43.6105 238.42 42.5605 238.345 42.0055C238.035 39.5655 234.13 51.3455 228.555 55.3955C228.555 55.3955 225.775 60.3955 223.085 60.7205C224.123 61.8885 224.815 63.322 225.085 64.8605C225.149 65.2325 225.191 65.6085 225.21 65.9855C225.218 66.1105 225.218 66.2355 225.21 66.3605C225.21 69.8355 220.71 68.9855 218.955 68.5805C217.61 68.2755 214.735 67.3755 213.455 65.7555V51.9355C213.455 51.9355 216.955 28.0605 241.765 26.9355C246.608 27.0311 251.357 28.2862 255.615 30.5955C255.639 30.6081 255.66 30.6232 255.68 30.6405C260.79 34.6405 265.255 41.4055 265.87 52.9905C265.865 53.0005 267.875 67.6705 261.065 67.6705Z" fill="#1B7FBD"/>
<path d="M203.445 97.4297C203.445 97.4297 219.185 114.245 239.73 114.245C260.275 114.245 275.155 98.3197 275.155 98.3197" stroke="black" stroke-width="4.48" stroke-miterlimit="10"/>
<path d="M220.47 189.926L222.5 198.501L238.965 268.246C239.184 269.182 239.303 270.139 239.32 271.101C239.317 271.103 239.315 271.107 239.313 271.111C239.311 271.115 239.31 271.119 239.31 271.123C239.31 271.127 239.311 271.132 239.313 271.135C239.315 271.139 239.317 271.143 239.32 271.146C239.313 271.157 239.309 271.171 239.309 271.186C239.309 271.2 239.313 271.214 239.32 271.226C239.32 271.226 239.32 271.226 239.32 271.256V278.991H228.32C227.726 278.994 227.138 278.877 226.59 278.647C226.043 278.417 225.548 278.078 225.135 277.651C224.725 277.218 224.405 276.708 224.195 276.151C224.099 275.917 224.027 275.674 223.98 275.426C223.916 275.137 223.884 274.842 223.885 274.546V272.166C223.886 270.468 223.467 268.797 222.665 267.301L206.945 238.116L194.25 214.531L192.905 212.031L192.195 210.716" stroke="black" stroke-width="4.48" stroke-miterlimit="10"/>
<path d="M261.905 187.859L239.77 267.999C239.458 269.139 239.3 270.317 239.3 271.499V278.999H251.33C252.509 278.999 253.64 278.531 254.473 277.697C255.307 276.864 255.775 275.733 255.775 274.554V271.859C255.776 270.126 256.215 268.422 257.05 266.904L288.5 209.839" stroke="black" stroke-width="4.48" stroke-miterlimit="10"/>
<path d="M276.85 311.545V337.15C276.849 338.377 276.361 339.554 275.493 340.422C274.625 341.29 273.448 341.778 272.22 341.78H206.91C206.361 341.783 205.815 341.68 205.305 341.475C204.423 341.147 203.663 340.556 203.126 339.783C202.59 339.01 202.303 338.091 202.305 337.15V311.545C202.305 306.774 203.911 302.143 206.864 298.397C209.818 294.65 213.947 292.008 218.585 290.895C218.91 290.82 219.215 290.755 219.54 290.695C219.865 290.635 220.315 290.555 220.715 290.51C221.288 290.42 221.866 290.363 222.445 290.34H222.5C222.855 290.34 223.195 290.31 223.55 290.31H255.625C255.914 290.305 256.203 290.315 256.49 290.34C257.876 290.381 259.253 290.567 260.6 290.895C265.233 292.014 269.355 294.659 272.303 298.404C275.25 302.15 276.852 306.778 276.85 311.545Z" stroke="black" stroke-width="4.48" stroke-miterlimit="10"/>
<path d="M255.78 273.314H258.035C258.369 273.313 258.7 273.377 259.009 273.504C259.318 273.631 259.599 273.817 259.836 274.053C260.073 274.288 260.261 274.568 260.39 274.876C260.518 275.185 260.585 275.515 260.585 275.849V290.889" stroke="black" stroke-width="2.98" stroke-miterlimit="10"/>
<path d="M218.575 290.889V275.849C218.577 275.177 218.844 274.533 219.319 274.058C219.794 273.583 220.438 273.316 221.11 273.314H223.86" stroke="black" stroke-width="2.98" stroke-miterlimit="10"/>
<path d="M254.53 277.625H255.365C255.511 277.625 255.656 277.654 255.791 277.71C255.926 277.766 256.049 277.848 256.152 277.952C256.255 278.055 256.337 278.179 256.392 278.314C256.448 278.449 256.476 278.594 256.475 278.74V290.335" stroke="black" stroke-width="2.98" stroke-miterlimit="10"/>
<path d="M222.5 290.335V278.725C222.5 278.434 222.615 278.155 222.82 277.949C223.025 277.743 223.304 277.627 223.595 277.625H225.125" stroke="black" stroke-width="2.98" stroke-miterlimit="10"/>
<path d="M264.865 449.436C264.694 451.891 264.385 454.335 263.94 456.756C262.86 462.671 260.57 470.501 255.845 474.116C254.24 473.146 250.845 469.791 248.51 458.456C249.211 459.582 250.202 460.498 251.379 461.11C252.556 461.721 253.876 462.005 255.2 461.931C255.5 461.921 255.798 461.896 256.095 461.856C262.795 460.836 264.65 450.736 264.865 449.436Z" fill="black"/>
<path d="M234.54 449.436C234.369 451.891 234.06 454.335 233.615 456.756C232.535 462.671 230.25 470.501 225.525 474.116C223.915 473.146 220.525 469.791 218.19 458.456C218.89 459.581 219.88 460.498 221.056 461.109C222.232 461.721 223.551 462.004 224.875 461.931C225.174 461.921 225.473 461.896 225.77 461.856C232.5 460.836 234.325 450.736 234.54 449.436Z" fill="black"/>
<path d="M212.77 51.53C212.849 44.5511 215.672 37.884 220.63 32.9712C225.587 28.0584 232.279 25.2952 239.259 25.2794C246.238 25.2636 252.943 27.9966 257.922 32.8869C262.901 37.7772 265.755 44.4316 265.865 51.41V51.53" stroke="black" stroke-width="4.48" stroke-miterlimit="10"/>
<path d="M236.245 77.9102C236.245 77.9102 236.245 77.9102 236.275 77.9102C237.286 78.0232 238.303 78.0797 239.32 78.0802C239.675 78.0802 240.015 78.0802 240.37 78.0502C240.4 78.0502 240.43 78.0502 240.46 78.0502" stroke="black" stroke-width="2.98" stroke-miterlimit="10"/>
<path d="M223.535 59.925C224.008 62.8555 224.859 65.7125 226.065 68.425C227.965 72.49 231.165 76.845 236.245 77.925C236.245 77.925 236.245 77.925 236.275 77.925C237.575 78.201 238.912 78.2585 240.23 78.095C240.278 78.092 240.325 78.0815 240.37 78.065C240.4 78.065 240.43 78.065 240.46 78.065C246.795 77.23 250.42 72.44 252.46 67.685C253.805 64.6015 254.67 61.33 255.025 57.985C245.76 54.435 238.64 41.5 238.64 41.5C238.64 41.5 230.56 56.14 223.535 59.925Z" stroke="black" stroke-width="4.48" stroke-miterlimit="10"/>
<path d="M263.55 454.175C263.595 453.62 263.795 452.48 263.84 451.925C267.34 408.085 289.57 336.61 290.975 259.95C291.315 241.355 288.94 227.115 285.015 216.195" stroke="black" stroke-width="4.48" stroke-miterlimit="10"/>
<path d="M244.815 449.294L241.525 341.779" stroke="black" stroke-width="4.48" stroke-miterlimit="10"/>
<path d="M244.835 449.436C244.94 451.231 246.225 469.206 254.5 474.596C254.5 474.596 260.54 473.456 263.585 453.861" stroke="black" stroke-width="4.48" stroke-miterlimit="10"/>
<path d="M263.845 451.906C262.64 456.691 260.52 462.096 254.5 461.906C247.075 461.691 245.065 450.756 244.835 449.406C244.832 449.359 244.832 449.312 244.835 449.266" stroke="black" stroke-width="4.48" stroke-miterlimit="10"/>
<path d="M194.215 214.525C189.92 225.645 187.28 240.395 187.635 259.93C188.47 305.5 196.685 349.27 203.93 386.5C208.87 411.86 213.365 434.175 214.77 451.935C214.764 451.977 214.764 452.019 214.77 452.06C214.83 452.615 215 453.79 215.08 454.42C215.081 454.509 215.092 454.598 215.11 454.685" stroke="black" stroke-width="4.48" stroke-miterlimit="10"/>
<path d="M237.065 341.779L233.755 449.899" stroke="black" stroke-width="4.48" stroke-miterlimit="10"/>
<path d="M233.765 449.436C233.66 451.231 232.375 469.206 224.1 474.596C224.1 474.596 218.1 473.776 215.05 454.181" stroke="black" stroke-width="4.48" stroke-miterlimit="10"/>
<path d="M214.755 451.906C215.96 456.691 218.085 462.096 224.1 461.906C231.525 461.691 233.535 450.756 233.765 449.406C233.768 449.359 233.768 449.312 233.765 449.266" stroke="black" stroke-width="2.98" stroke-miterlimit="10"/>
<path d="M212.77 50.6641V62.3441C212.772 63.9531 213.412 65.4956 214.55 66.6331C215.688 67.7701 217.231 68.4091 218.84 68.4091H226.065" stroke="black" stroke-width="4.48" stroke-miterlimit="10"/>
<path d="M265.865 51.4141V62.0491C265.865 65.1491 263.365 67.6641 261.79 67.6641H253.065" stroke="black" stroke-width="4.48" stroke-miterlimit="10"/>
<path d="M228.555 72.6152L227.47 89.4402C227.426 90.0237 227.18 90.5727 226.773 90.9932C226.367 91.4132 225.826 91.6777 225.245 91.7402C136.795 101.515 182.625 217.74 182.625 217.74L220.46 189.94L210.795 151.7" stroke="black" stroke-width="4.48" stroke-miterlimit="10"/>
<path d="M249.605 72.6152L251.525 90.0002C251.591 90.5462 251.834 91.0552 252.219 91.4482C252.603 91.8412 253.106 92.0967 253.65 92.1752C338.345 104.53 298.45 217.72 298.45 217.72C295.87 216.175 261.895 187.855 261.895 187.855L272.195 151.825" stroke="black" stroke-width="4.48" stroke-miterlimit="10"/>
<path d="M222.5 198.5C222.5 198.5 238.63 208.33 259.275 197.465" stroke="black" stroke-width="2.98" stroke-miterlimit="10"/>
<path d="M223.535 59.9258C222.22 60.5958 220.842 61.1318 219.42 61.5258" stroke="black" stroke-width="4.48" stroke-miterlimit="10"/>
<path d="M255.04 57.9707C256.202 58.3862 257.392 58.7202 258.6 58.9707" stroke="black" stroke-width="4.48" stroke-miterlimit="10"/>
<path d="M220.97 81.1052C223.315 81.1052 225.215 79.2047 225.215 76.8602C225.215 74.5162 223.315 72.6152 220.97 72.6152C218.626 72.6152 216.725 74.5162 216.725 76.8602C216.725 79.2047 218.626 81.1052 220.97 81.1052Z" stroke="black" stroke-width="2.98" stroke-miterlimit="10"/>
<path d="M256.82 81.1052C259.165 81.1052 261.065 79.2047 261.065 76.8602C261.065 74.5162 259.165 72.6152 256.82 72.6152C254.476 72.6152 252.575 74.5162 252.575 76.8602C252.575 79.2047 254.476 81.1052 256.82 81.1052Z" stroke="black" stroke-width="2.98" stroke-miterlimit="10"/>
<path d="M225.22 76.86C225.217 77.698 224.967 78.5165 224.5 79.2125C224.033 79.9085 223.371 80.4505 222.596 80.7715C221.822 81.092 220.97 81.1765 220.148 81.0145C219.326 80.852 218.57 80.4505 217.975 79.86C217.563 78.9555 217.481 77.9355 217.743 76.9765C218.005 76.018 218.595 75.1815 219.41 74.6125C220.225 74.044 221.214 73.7785 222.204 73.863C223.194 73.9475 224.123 74.3765 224.83 75.075C225.096 75.632 225.23 76.243 225.22 76.86Z" fill="black"/>
<path d="M261.065 76.86C261.064 77.698 260.814 78.517 260.348 79.2135C259.881 79.9095 259.219 80.4525 258.445 80.7735C257.671 81.094 256.819 81.1785 255.997 81.016C255.175 80.8535 254.419 80.451 253.825 79.86C253.413 78.9555 253.331 77.9355 253.593 76.9765C253.855 76.018 254.445 75.1815 255.26 74.6125C256.075 74.044 257.064 73.7785 258.054 73.863C259.044 73.9475 259.973 74.3765 260.68 75.075C260.941 75.6335 261.073 76.2435 261.065 76.86Z" fill="black"/>
<path d="M220.97 72.6148V61.0098" stroke="black" stroke-width="4.48" stroke-miterlimit="10"/>
<path d="M256.82 72.6149V58.5449" stroke="black" stroke-width="4.48" stroke-miterlimit="10"/>
<path d="M225.095 277.624H223.595C223.304 277.626 223.026 277.742 222.821 277.948C222.615 278.154 222.5 278.433 222.5 278.724V290.334C221.182 290.396 219.873 290.582 218.59 290.889V275.849C218.592 275.177 218.859 274.533 219.334 274.058C219.809 273.583 220.453 273.316 221.125 273.314H223.86V274.534C223.853 275.686 224.296 276.795 225.095 277.624Z" fill="black"/>
<path d="M254.53 277.624H256.03C256.321 277.626 256.6 277.742 256.805 277.948C257.01 278.154 257.125 278.433 257.125 278.724V290.334C258.442 290.396 259.749 290.581 261.03 290.889V275.849C261.03 275.178 260.764 274.534 260.29 274.058C259.815 273.583 259.172 273.316 258.5 273.314H255.765V274.534C255.77 275.685 255.327 276.793 254.53 277.624Z" fill="black"/>
<path d="M329.3 474.596H127.245" stroke="black" stroke-width="4.48" stroke-miterlimit="10"/>
<path d="M244.84 58.4695C245.724 58.4695 246.44 57.753 246.44 56.8695C246.44 55.986 245.724 55.2695 244.84 55.2695C243.957 55.2695 243.24 55.986 243.24 56.8695C243.24 57.753 243.957 58.4695 244.84 58.4695Z" fill="black"/>
<path d="M232.235 58.4695C233.119 58.4695 233.835 57.753 233.835 56.8695C233.835 55.986 233.119 55.2695 232.235 55.2695C231.352 55.2695 230.635 55.986 230.635 56.8695C230.635 57.753 231.352 58.4695 232.235 58.4695Z" fill="black"/>
<path d="M224 53.8442C224.93 53.7992 238.35 53.8442 238.35 53.8442L236.09 61.2592H227.76L224 53.8442Z" fill="#1B7FBD"/>
<path d="M238.725 53.8442C239.65 53.7992 253.075 53.8442 253.075 53.8442L249.27 61.2592H240.965L238.725 53.8442Z" fill="#1B7FBD"/>
<path d="M224 53.8442C224.93 53.7992 238.35 53.8442 238.35 53.8442L236.09 61.2592H227.76L224 53.8442Z" stroke="black" stroke-width="2.98" stroke-miterlimit="10"/>
<path d="M238.725 53.8442C239.65 53.7992 253.075 53.8442 253.075 53.8442L249.27 61.2592H240.965L238.725 53.8442Z" stroke="black" stroke-width="2.98" stroke-miterlimit="10"/>
<path d="M235.355 67.6655C235.355 67.6655 239.925 69.1655 241.145 66.8105" stroke="black" stroke-width="2.98" stroke-miterlimit="10"/>
<path d="M263.415 454.18C263.465 453.625 263.665 452.48 263.71 451.925C263.837 450.335 263.992 448.708 264.175 447.045C265.3 436.205 267.4 423.85 269.965 410.29C271.045 404.53 272.205 398.535 273.41 392.345C274.875 384.87 276.41 377.115 277.885 369.115C278.135 367.79 278.385 366.46 278.645 365.115C279.015 363.115 279.385 361.092 279.755 359.045C280.22 356.435 280.7 353.81 281.145 351.17C282.535 343.17 283.865 334.955 285.07 326.585C285.87 321.085 286.615 315.51 287.26 309.875C288.575 298.875 289.61 287.635 290.26 276.24C290.555 270.85 290.76 265.41 290.865 259.96C291.205 241.365 288.825 227.125 284.905 216.21L288.285 209.8C293.43 214 297.49 217.26 298.325 217.755C298.325 217.755 299.575 214.2 301.165 208.255C301.335 207.62 301.52 206.96 301.705 206.255C304.515 195.305 308.04 177.835 307.705 159.8C307.15 129.9 296 98.3802 253.545 92.1852C253.003 92.1042 252.502 91.8483 252.12 91.4553C251.738 91.0618 251.496 90.5543 251.43 90.0103" stroke="black" stroke-width="4.48" stroke-miterlimit="10"/>
<path d="M169.725 362.221H136.41" stroke="white" stroke-width="4.48" stroke-miterlimit="10"/>
<path d="M169.725 370.631H136.41" stroke="white" stroke-width="4.48" stroke-miterlimit="10"/>
<path d="M169.725 379.039H136.41" stroke="white" stroke-width="4.48" stroke-miterlimit="10"/>
<path d="M169.725 387.455H136.41" stroke="white" stroke-width="4.48" stroke-miterlimit="10"/>
<path d="M129.02 409.539H95.7051" stroke="white" stroke-width="4.48" stroke-miterlimit="10"/>
<path d="M129.02 417.516H95.7051" stroke="white" stroke-width="4.48" stroke-miterlimit="10"/>
<path d="M129.02 425.494H95.7051" stroke="white" stroke-width="4.48" stroke-miterlimit="10"/>
<path d="M129.02 433.475H95.7051" stroke="white" stroke-width="4.48" stroke-miterlimit="10"/>
<path d="M169.725 395.865H136.41" stroke="white" stroke-width="4.48" stroke-miterlimit="10"/>
<path d="M169.72 404.686H161.69" stroke="white" stroke-width="4.48" stroke-miterlimit="10"/>
<path d="M173.41 413.361H144.07V407.246C144.069 404.666 145.044 402.181 146.799 400.29C148.555 398.4 150.96 397.243 153.533 397.053C156.106 396.863 158.656 397.654 160.669 399.266C162.683 400.879 164.013 403.194 164.39 405.746C165 409.966 169.165 413.361 173.41 413.361Z" fill="#1B7FBD"/>
</svg>
